<svg class="rich-terminal" viewBox="0 0 1360 782.0" xmlns="http://www.w3.org/2000/svg">
    <!-- Generated with Rich https://www.textualize.io -->
    <style>

    @font-face {
        font-family: "Fira Code";
        src: local("FiraCode-Regular"),
                url("https://cdnjs.cloudflare.com/ajax/libs/firacode/6.2.0/woff2/FiraCode-Regular.woff2") format("woff2"),
                url("https://cdnjs.cloudflare.com/ajax/libs/firacode/6.2.0/woff/FiraCode-Regular.woff") format("woff");
        font-style: normal;
        font-weight: 400;
    }
    @font-face {
        font-family: "Fira Code";
        src: local("FiraCode-Bold"),
                url("https://cdnjs.cloudflare.com/ajax/libs/firacode/6.2.0/woff2/FiraCode-Bold.woff2") format("woff2"),
                url("https://cdnjs.cloudflare.com/ajax/libs/firacode/6.2.0/woff/FiraCode-Bold.woff") format("woff");
        font-style: bold;
        font-weight: 700;
    }

    .terminal-35770469-matrix {
        font-family: Fira Code, monospace;
        font-size: 20px;
        line-height: 24.4px;
        font-variant-east-asian: full-width;
    }

    .terminal-35770469-title {
        font-size: 18px;
        font-weight: bold;
        font-family: arial;
    }

    .terminal-35770469-r1 { fill: #c5c8c6 }
.terminal-35770469-r2 { fill: #e0e0e0 }
.terminal-35770469-r3 { fill: #242f38 }
.terminal-35770469-r4 { fill: #000f18 }
.terminal-35770469-r5 { fill: #fea62b }
.terminal-35770469-r6 { fill: #121212 }
.terminal-35770469-r7 { fill: #191919 }
.terminal-35770469-r8 { fill: #ddedf9;font-weight: bold }
.terminal-35770469-r9 { fill: #0178d4 }
.terminal-35770469-r10 { fill: #a1a1a1;font-weight: bold }
.terminal-35770469-r11 { fill: #fd971f }
.terminal-35770469-r12 { fill: #fd971f;font-style: italic; }
.terminal-35770469-r13 { fill: #fd971f;font-weight: bold }
.terminal-35770469-r14 { fill: #e0e0e0;font-style: italic; }
.terminal-35770469-r15 { fill: #58d1eb }
.terminal-35770469-r16 { fill: #f4005f }
.terminal-35770469-r17 { fill: #98e024 }
.terminal-35770469-r18 { fill: #ffa62b;font-weight: bold }
.terminal-35770469-r19 { fill: #495259 }
    </style>

    <defs>
    <clipPath id="terminal-35770469-clip-terminal">
      <rect x="0" y="0" width="1341.0" height="731.0" />
    </clipPath>
    <clipPath id="terminal-35770469-line-0">
    <rect x="0" y="1.5" width="1342" height="24.65"/>
            </clipPath>
<clipPath id="terminal-35770469-line-1">
    <rect x="0" y="25.9" width="1342" height="24.65"/>
            </clipPath>
<clipPath id="terminal-35770469-line-2">
    <rect x="0" y="50.3" width="1342" height="24.65"/>
            </clipPath>
<clipPath id="terminal-35770469-line-3">
    <rect x="0" y="74.7" width="1342" height="24.65"/>
            </clipPath>
<clipPath id="terminal-35770469-line-4">
    <rect x="0" y="99.1" width="1342" height="24.65"/>
            </clipPath>
<clipPath id="terminal-35770469-line-5">
    <rect x="0" y="123.5" width="1342" height="24.65"/>
            </clipPath>
<clipPath id="terminal-35770469-line-6">
    <rect x="0" y="147.9" width="1342" height="24.65"/>
            </clipPath>
<clipPath id="terminal-35770469-line-7">
    <rect x="0" y="172.3" width="1342" height="24.65"/>
            </clipPath>
<clipPath id="terminal-35770469-line-8">
    <rect x="0" y="196.7" width="1342" height="24.65"/>
            </clipPath>
<clipPath id="terminal-35770469-line-9">
    <rect x="0" y="221.1" width="1342" height="24.65"/>
            </clipPath>
<clipPath id="terminal-35770469-line-10">
    <rect x="0" y="245.5" width="1342" height="24.65"/>
            </clipPath>
<clipPath id="terminal-35770469-line-11">
    <rect x="0" y="269.9" width="1342" height="24.65"/>
            </clipPath>
<clipPath id="terminal-35770469-line-12">
    <rect x="0" y="294.3" width="1342" height="24.65"/>
            </clipPath>
<clipPath id="terminal-35770469-line-13">
    <rect x="0" y="318.7" width="1342" height="24.65"/>
            </clipPath>
<clipPath id="terminal-35770469-line-14">
    <rect x="0" y="343.1" width="1342" height="24.65"/>
            </clipPath>
<clipPath id="terminal-35770469-line-15">
    <rect x="0" y="367.5" width="1342" height="24.65"/>
            </clipPath>
<clipPath id="terminal-35770469-line-16">
    <rect x="0" y="391.9" width="1342" height="24.65"/>
            </clipPath>
<clipPath id="terminal-35770469-line-17">
    <rect x="0" y="416.3" width="1342" height="24.65"/>
            </clipPath>
<clipPath id="terminal-35770469-line-18">
    <rect x="0" y="440.7" width="1342" height="24.65"/>
            </clipPath>
<clipPath id="terminal-35770469-line-19">
    <rect x="0" y="465.1" width="1342" height="24.65"/>
            </clipPath>
<clipPath id="terminal-35770469-line-20">
    <rect x="0" y="489.5" width="1342" height="24.65"/>
            </clipPath>
<clipPath id="terminal-35770469-line-21">
    <rect x="0" y="513.9" width="1342" height="24.65"/>
            </clipPath>
<clipPath id="terminal-35770469-line-22">
    <rect x="0" y="538.3" width="1342" height="24.65"/>
            </clipPath>
<clipPath id="terminal-35770469-line-23">
    <rect x="0" y="562.7" width="1342" height="24.65"/>
            </clipPath>
<clipPath id="terminal-35770469-line-24">
    <rect x="0" y="587.1" width="1342" height="24.65"/>
            </clipPath>
<clipPath id="terminal-35770469-line-25">
    <rect x="0" y="611.5" width="1342" height="24.65"/>
            </clipPath>
<clipPath id="terminal-35770469-line-26">
    <rect x="0" y="635.9" width="1342" height="24.65"/>
            </clipPath>
<clipPath id="terminal-35770469-line-27">
    <rect x="0" y="660.3" width="1342" height="24.65"/>
            </clipPath>
<clipPath id="terminal-35770469-line-28">
    <rect x="0" y="684.7" width="1342" height="24.65"/>
            </clipPath>
    </defs>

    <rect fill="#292929" stroke="rgba(255,255,255,0.35)" stroke-width="1" x="1" y="1" width="1358" height="780" rx="8"/><text class="terminal-35770469-title" fill="#c5c8c6" text-anchor="middle" x="679" y="27">filer&#160;—&#160;changed&#160;files&#160;marked&#160;(*)</text>
            <g transform="translate(26,22)">
            <circle cx="0" cy="0" r="7" fill="#ff5f57"/>
            <circle cx="22" cy="0" r="7" fill="#febc2e"/>
            <circle cx="44" cy="0" r="7" fill="#28c840"/>
            </g>
        
    <g transform="translate(9, 41)" clip-path="url(#terminal-35770469-clip-terminal)">
    <rect fill="#242f38" x="0" y="1.5" width="12.2" height="24.65" shape-rendering="crispEdges"/><rect fill="#242f38" x="12.2" y="1.5" width="12.2" height="24.65" shape-rendering="crispEdges"/><rect fill="#242f38" x="24.4" y="1.5" width="61" height="24.65" shape-rendering="crispEdges"/><rect fill="#242f38" x="85.4" y="1.5" width="12.2" height="24.65" shape-rendering="crispEdges"/><rect fill="#242f38" x="97.6" y="1.5" width="524.6" height="24.65" shape-rendering="crispEdges"/><rect fill="#242f38" x="622.2" y="1.5" width="73.2" height="24.65" shape-rendering="crispEdges"/><rect fill="#242f38" x="695.4" y="1.5" width="524.6" height="24.65" shape-rendering="crispEdges"/><rect fill="#242f38" x="1220" y="1.5" width="12.2" height="24.65" shape-rendering="crispEdges"/><rect fill="#242f38" x="1232.2" y="1.5" width="0" height="24.65" shape-rendering="crispEdges"/><rect fill="#242f38" x="1232.2" y="1.5" width="97.6" height="24.65" shape-rendering="crispEdges"/><rect fill="#242f38" x="1329.8" y="1.5" width="12.2" height="24.65" shape-rendering="crispEdges"/><rect fill="#242f38" x="0" y="25.9" width="12.2" height="24.65" shape-rendering="crispEdges"/><rect fill="#242f38" x="12.2" y="25.9" width="12.2" height="24.65" shape-rendering="crispEdges"/><rect fill="#242f38" x="24.4" y="25.9" width="12.2" height="24.65" shape-rendering="crispEdges"/><rect fill="#242f38" x="36.6" y="25.9" width="12.2" height="24.65" shape-rendering="crispEdges"/><rect fill="#242f38" x="48.8" y="25.9" width="170.8" height="24.65" shape-rendering="crispEdges"/><rect fill="#242f38" x="219.6" y="25.9" width="12.2" height="24.65" shape-rendering="crispEdges"/><rect fill="#121212" x="231.8" y="25.9" width="73.2" height="24.65" shape-rendering="crispEdges"/><rect fill="#121212" x="305" y="25.9" width="12.2" height="24.65" shape-rendering="crispEdges"/><rect fill="#191919" x="317.2" y="25.9" width="12.2" height="24.65" shape-rendering="crispEdges"/><rect fill="#1e1e1e" x="329.4" y="25.9" width="1000.4" height="24.65" shape-rendering="crispEdges"/><rect fill="#121212" x="1329.8" y="25.9" width="12.2" height="24.65" shape-rendering="crispEdges"/><rect fill="#272727" x="0" y="50.3" width="36.6" height="24.65" shape-rendering="crispEdges"/><rect fill="#0178d4" x="36.6" y="50.3" width="134.2" height="24.65" shape-rendering="crispEdges"/><rect fill="#272727" x="170.8" y="50.3" width="134.2" height="24.65" shape-rendering="crispEdges"/><rect fill="#121212" x="305" y="50.3" width="12.2" height="24.65" shape-rendering="crispEdges"/><rect fill="#191919" x="317.2" y="50.3" width="12.2" height="24.65" shape-rendering="crispEdges"/><rect fill="#1e1e1e" x="329.4" y="50.3" width="12.2" height="24.65" shape-rendering="crispEdges"/><rect fill="#1e1e1e" x="341.6" y="50.3" width="573.4" height="24.65" shape-rendering="crispEdges"/><rect fill="#1e1e1e" x="915" y="50.3" width="402.6" height="24.65" shape-rendering="crispEdges"/><rect fill="#1e1e1e" x="1317.6" y="50.3" width="12.2" height="24.65" shape-rendering="crispEdges"/><rect fill="#121212" x="1329.8" y="50.3" width="12.2" height="24.65" shape-rendering="crispEdges"/><rect fill="#272727" x="0" y="74.7" width="48.8" height="24.65" shape-rendering="crispEdges"/><rect fill="#272727" x="48.8" y="74.7" width="36.6" height="24.65" shape-rendering="crispEdges"/><rect fill="#272727" x="85.4" y="74.7" width="48.8" height="24.65" shape-rendering="crispEdges"/><rect fill="#272727" x="134.2" y="74.7" width="170.8" height="24.65" shape-rendering="crispEdges"/><rect fill="#121212" x="305" y="74.7" width="12.2" height="24.65" shape-rendering="crispEdges"/><rect fill="#191919" x="317.2" y="74.7" width="12.2" height="24.65" shape-rendering="crispEdges"/><rect fill="#1e1e1e" x="329.4" y="74.7" width="12.2" height="24.65" shape-rendering="crispEdges"/><rect fill="#1e1e1e" x="341.6" y="74.7" width="976" height="24.65" shape-rendering="crispEdges"/><rect fill="#1e1e1e" x="1317.6" y="74.7" width="12.2" height="24.65" shape-rendering="crispEdges"/><rect fill="#121212" x="1329.8" y="74.7" width="12.2" height="24.65" shape-rendering="crispEdges"/><rect fill="#272727" x="0" y="99.1" width="48.8" height="24.65" shape-rendering="crispEdges"/><rect fill="#272727" x="48.8" y="99.1" width="36.6" height="24.65" shape-rendering="crispEdges"/><rect fill="#272727" x="85.4" y="99.1" width="61" height="24.65" shape-rendering="crispEdges"/><rect fill="#272727" x="146.4" y="99.1" width="36.6" height="24.65" shape-rendering="crispEdges"/><rect fill="#272727" x="183" y="99.1" width="24.4" height="24.65" shape-rendering="crispEdges"/><rect fill="#272727" x="207.4" y="99.1" width="97.6" height="24.65" shape-rendering="crispEdges"/><rect fill="#121212" x="305" y="99.1" width="12.2" height="24.65" shape-rendering="crispEdges"/><rect fill="#191919" x="317.2" y="99.1" width="12.2" height="24.65" shape-rendering="crispEdges"/><rect fill="#1e1e1e" x="329.4" y="99.1" width="12.2" height="24.65" shape-rendering="crispEdges"/><rect fill="#1e1e1e" x="341.6" y="99.1" width="976" height="24.65" shape-rendering="crispEdges"/><rect fill="#1e1e1e" x="1317.6" y="99.1" width="12.2" height="24.65" shape-rendering="crispEdges"/><rect fill="#121212" x="1329.8" y="99.1" width="12.2" height="24.65" shape-rendering="crispEdges"/><rect fill="#272727" x="0" y="123.5" width="48.8" height="24.65" shape-rendering="crispEdges"/><rect fill="#272727" x="48.8" y="123.5" width="36.6" height="24.65" shape-rendering="crispEdges"/><rect fill="#272727" x="85.4" y="123.5" width="48.8" height="24.65" shape-rendering="crispEdges"/><rect fill="#272727" x="134.2" y="123.5" width="36.6" height="24.65" shape-rendering="crispEdges"/><rect fill="#272727" x="170.8" y="123.5" width="134.2" height="24.65" shape-rendering="crispEdges"/><rect fill="#121212" x="305" y="123.5" width="12.2" height="24.65" shape-rendering="crispEdges"/><rect fill="#191919" x="317.2" y="123.5" width="12.2" height="24.65" shape-rendering="crispEdges"/><rect fill="#1e1e1e" x="329.4" y="123.5" width="12.2" height="24.65" shape-rendering="crispEdges"/><rect fill="#1e1e1e" x="341.6" y="123.5" width="976" height="24.65" shape-rendering="crispEdges"/><rect fill="#1e1e1e" x="1317.6" y="123.5" width="12.2" height="24.65" shape-rendering="crispEdges"/><rect fill="#121212" x="1329.8" y="123.5" width="12.2" height="24.65" shape-rendering="crispEdges"/><rect fill="#272727" x="0" y="147.9" width="48.8" height="24.65" shape-rendering="crispEdges"/><rect fill="#272727" x="48.8" y="147.9" width="36.6" height="24.65" shape-rendering="crispEdges"/><rect fill="#272727" x="85.4" y="147.9" width="61" height="24.65" shape-rendering="crispEdges"/><rect fill="#272727" x="146.4" y="147.9" width="36.6" height="24.65" shape-rendering="crispEdges"/><rect fill="#272727" x="183" y="147.9" width="122" height="24.65" shape-rendering="crispEdges"/><rect fill="#121212" x="305" y="147.9" width="12.2" height="24.65" shape-rendering="crispEdges"/><rect fill="#191919" x="317.2" y="147.9" width="12.2" height="24.65" shape-rendering="crispEdges"/><rect fill="#1e1e1e" x="329.4" y="147.9" width="12.2" height="24.65" shape-rendering="crispEdges"/><rect fill="#1e1e1e" x="341.6" y="147.9" width="976" height="24.65" shape-rendering="crispEdges"/><rect fill="#1e1e1e" x="1317.6" y="147.9" width="12.2" height="24.65" shape-rendering="crispEdges"/><rect fill="#121212" x="1329.8" y="147.9" width="12.2" height="24.65" shape-rendering="crispEdges"/><rect fill="#272727" x="0" y="172.3" width="48.8" height="24.65" shape-rendering="crispEdges"/><rect fill="#272727" x="48.8" y="172.3" width="36.6" height="24.65" shape-rendering="crispEdges"/><rect fill="#272727" x="85.4" y="172.3" width="73.2" height="24.65" shape-rendering="crispEdges"/><rect fill="#272727" x="158.6" y="172.3" width="36.6" height="24.65" shape-rendering="crispEdges"/><rect fill="#272727" x="195.2" y="172.3" width="24.4" height="24.65" shape-rendering="crispEdges"/><rect fill="#272727" x="219.6" y="172.3" width="85.4" height="24.65" shape-rendering="crispEdges"/><rect fill="#121212" x="305" y="172.3" width="12.2" height="24.65" shape-rendering="crispEdges"/><rect fill="#191919" x="317.2" y="172.3" width="12.2" height="24.65" shape-rendering="crispEdges"/><rect fill="#1e1e1e" x="329.4" y="172.3" width="12.2" height="24.65" shape-rendering="crispEdges"/><rect fill="#1e1e1e" x="341.6" y="172.3" width="976" height="24.65" shape-rendering="crispEdges"/><rect fill="#1e1e1e" x="1317.6" y="172.3" width="12.2" height="24.65" shape-rendering="crispEdges"/><rect fill="#121212" x="1329.8" y="172.3" width="12.2" height="24.65" shape-rendering="crispEdges"/><rect fill="#272727" x="0" y="196.7" width="305" height="24.65" shape-rendering="crispEdges"/><rect fill="#121212" x="305" y="196.7" width="12.2" height="24.65" shape-rendering="crispEdges"/><rect fill="#191919" x="317.2" y="196.7" width="12.2" height="24.65" shape-rendering="crispEdges"/><rect fill="#1e1e1e" x="329.4" y="196.7" width="12.2" height="24.65" shape-rendering="crispEdges"/><rect fill="#1e1e1e" x="341.6" y="196.7" width="976" height="24.65" shape-rendering="crispEdges"/><rect fill="#1e1e1e" x="1317.6" y="196.7" width="12.2" height="24.65" shape-rendering="crispEdges"/><rect fill="#121212" x="1329.8" y="196.7" width="12.2" height="24.65" shape-rendering="crispEdges"/><rect fill="#272727" x="0" y="221.1" width="305" height="24.65" shape-rendering="crispEdges"/><rect fill="#121212" x="305" y="221.1" width="12.2" height="24.65" shape-rendering="crispEdges"/><rect fill="#191919" x="317.2" y="221.1" width="12.2" height="24.65" shape-rendering="crispEdges"/><rect fill="#1e1e1e" x="329.4" y="221.1" width="12.2" height="24.65" shape-rendering="crispEdges"/><rect fill="#1e1e1e" x="341.6" y="221.1" width="976" height="24.65" shape-rendering="crispEdges"/><rect fill="#1e1e1e" x="1317.6" y="221.1" width="12.2" height="24.65" shape-rendering="crispEdges"/><rect fill="#121212" x="1329.8" y="221.1" width="12.2" height="24.65" shape-rendering="crispEdges"/><rect fill="#272727" x="0" y="245.5" width="305" height="24.65" shape-rendering="crispEdges"/><rect fill="#121212" x="305" y="245.5" width="12.2" height="24.65" shape-rendering="crispEdges"/><rect fill="#191919" x="317.2" y="245.5" width="12.2" height="24.65" shape-rendering="crispEdges"/><rect fill="#1e1e1e" x="329.4" y="245.5" width="12.2" height="24.65" shape-rendering="crispEdges"/><rect fill="#1e1e1e" x="341.6" y="245.5" width="976" height="24.65" shape-rendering="crispEdges"/><rect fill="#1e1e1e" x="1317.6" y="245.5" width="12.2" height="24.65" shape-rendering="crispEdges"/><rect fill="#121212" x="1329.8" y="245.5" width="12.2" height="24.65" shape-rendering="crispEdges"/><rect fill="#272727" x="0" y="269.9" width="305" height="24.65" shape-rendering="crispEdges"/><rect fill="#121212" x="305" y="269.9" width="12.2" height="24.65" shape-rendering="crispEdges"/><rect fill="#1e1e1e" x="317.2" y="269.9" width="12.2" height="24.65" shape-rendering="crispEdges"/><rect fill="#1e1e1e" x="329.4" y="269.9" width="1000.4" height="24.65" shape-rendering="crispEdges"/><rect fill="#1e1e1e" x="1329.8" y="269.9" width="12.2" height="24.65" shape-rendering="crispEdges"/><rect fill="#272727" x="0" y="294.3" width="305" height="24.65" shape-rendering="crispEdges"/><rect fill="#121212" x="305" y="294.3" width="12.2" height="24.65" shape-rendering="crispEdges"/><rect fill="#242f38" x="317.2" y="294.3" width="12.2" height="24.65" shape-rendering="crispEdges"/><rect fill="#242f38" x="329.4" y="294.3" width="158.6" height="24.65" shape-rendering="crispEdges"/><rect fill="#242f38" x="488" y="294.3" width="671" height="24.65" shape-rendering="crispEdges"/><rect fill="#0178d4" x="1159" y="294.3" width="24.4" height="24.65" shape-rendering="crispEdges"/><rect fill="#0178d4" x="1183.4" y="294.3" width="122" height="24.65" shape-rendering="crispEdges"/><rect fill="#0178d4" x="1305.4" y="294.3" width="24.4" height="24.65" shape-rendering="crispEdges"/><rect fill="#242f38" x="1329.8" y="294.3" width="12.2" height="24.65" shape-rendering="crispEdges"/><rect fill="#272727" x="0" y="318.7" width="305" height="24.65" shape-rendering="crispEdges"/><rect fill="#121212" x="305" y="318.7" width="12.2" height="24.65" shape-rendering="crispEdges"/><rect fill="#121212" x="317.2" y="318.7" width="12.2" height="24.65" shape-rendering="crispEdges"/><rect fill="#121212" x="329.4" y="318.7" width="390.4" height="24.65" shape-rendering="crispEdges"/><rect fill="#121212" x="719.8" y="318.7" width="610" height="24.65" shape-rendering="crispEdges"/><rect fill="#121212" x="1329.8" y="318.7" width="12.2" height="24.65" shape-rendering="crispEdges"/><rect fill="#272727" x="0" y="343.1" width="305" height="24.65" shape-rendering="crispEdges"/><rect fill="#121212" x="305" y="343.1" width="12.2" height="24.65" shape-rendering="crispEdges"/><rect fill="#121212" x="317.2" y="343.1" width="12.2" height="24.65" shape-rendering="crispEdges"/><rect fill="#121212" x="329.4" y="343.1" width="353.8" height="24.65" shape-rendering="crispEdges"/><rect fill="#121212" x="683.2" y="343.1" width="646.6" height="24.65" shape-rendering="crispEdges"/><rect fill="#121212" x="1329.8" y="343.1" width="12.2" height="24.65" shape-rendering="crispEdges"/><rect fill="#272727" x="0" y="367.5" width="305" height="24.65" shape-rendering="crispEdges"/><rect fill="#121212" x="305" y="367.5" width="12.2" height="24.65" shape-rendering="crispEdges"/><rect fill="#121212" x="317.2" y="367.5" width="12.2" height="24.65" shape-rendering="crispEdges"/><rect fill="#121212" x="329.4" y="367.5" width="170.8" height="24.65" shape-rendering="crispEdges"/><rect fill="#121212" x="500.2" y="367.5" width="829.6" height="24.65" shape-rendering="crispEdges"/><rect fill="#121212" x="1329.8" y="367.5" width="12.2" height="24.65" shape-rendering="crispEdges"/><rect fill="#272727" x="0" y="391.9" width="305" height="24.65" shape-rendering="crispEdges"/><rect fill="#121212" x="305" y="391.9" width="12.2" height="24.65" shape-rendering="crispEdges"/><rect fill="#121212" x="317.2" y="391.9" width="12.2" height="24.65" shape-rendering="crispEdges"/><rect fill="#121212" x="329.4" y="391.9" width="170.8" height="24.65" shape-rendering="crispEdges"/><rect fill="#121212" x="500.2" y="391.9" width="829.6" height="24.65" shape-rendering="crispEdges"/><rect fill="#121212" x="1329.8" y="391.9" width="12.2" height="24.65" shape-rendering="crispEdges"/><rect fill="#272727" x="0" y="416.3" width="305" height="24.65" shape-rendering="crispEdges"/><rect fill="#121212" x="305" y="416.3" width="12.2" height="24.65" shape-rendering="crispEdges"/><rect fill="#121212" x="317.2" y="416.3" width="12.2" height="24.65" shape-rendering="crispEdges"/><rect fill="#121212" x="329.4" y="416.3" width="134.2" height="24.65" shape-rendering="crispEdges"/><rect fill="#121212" x="463.6" y="416.3" width="866.2" height="24.65" shape-rendering="crispEdges"/><rect fill="#121212" x="1329.8" y="416.3" width="12.2" height="24.65" shape-rendering="crispEdges"/><rect fill="#272727" x="0" y="440.7" width="305" height="24.65" shape-rendering="crispEdges"/><rect fill="#121212" x="305" y="440.7" width="12.2" height="24.65" shape-rendering="crispEdges"/><rect fill="#121212" x="317.2" y="440.7" width="12.2" height="24.65" shape-rendering="crispEdges"/><rect fill="#121212" x="329.4" y="440.7" width="48.8" height="24.65" shape-rendering="crispEdges"/><rect fill="#121212" x="378.2" y="440.7" width="951.6" height="24.65" shape-rendering="crispEdges"/><rect fill="#121212" x="1329.8" y="440.7" width="12.2" height="24.65" shape-rendering="crispEdges"/><rect fill="#272727" x="0" y="465.1" width="305" height="24.65" shape-rendering="crispEdges"/><rect fill="#121212" x="305" y="465.1" width="12.2" height="24.65" shape-rendering="crispEdges"/><rect fill="#121212" x="317.2" y="465.1" width="12.2" height="24.65" shape-rendering="crispEdges"/><rect fill="#121212" x="329.4" y="465.1" width="48.8" height="24.65" shape-rendering="crispEdges"/><rect fill="#121212" x="378.2" y="465.1" width="951.6" height="24.65" shape-rendering="crispEdges"/><rect fill="#121212" x="1329.8" y="465.1" width="12.2" height="24.65" shape-rendering="crispEdges"/><rect fill="#272727" x="0" y="489.5" width="305" height="24.65" shape-rendering="crispEdges"/><rect fill="#121212" x="305" y="489.5" width="12.2" height="24.65" shape-rendering="crispEdges"/><rect fill="#121212" x="317.2" y="489.5" width="12.2" height="24.65" shape-rendering="crispEdges"/><rect fill="#121212" x="329.4" y="489.5" width="414.8" height="24.65" shape-rendering="crispEdges"/><rect fill="#121212" x="744.2" y="489.5" width="585.6" height="24.65" shape-rendering="crispEdges"/><rect fill="#121212" x="1329.8" y="489.5" width="12.2" height="24.65" shape-rendering="crispEdges"/><rect fill="#272727" x="0" y="513.9" width="305" height="24.65" shape-rendering="crispEdges"/><rect fill="#121212" x="305" y="513.9" width="12.2" height="24.65" shape-rendering="crispEdges"/><rect fill="#121212" x="317.2" y="513.9" width="12.2" height="24.65" shape-rendering="crispEdges"/><rect fill="#121212" x="329.4" y="513.9" width="353.8" height="24.65" shape-rendering="crispEdges"/><rect fill="#121212" x="683.2" y="513.9" width="646.6" height="24.65" shape-rendering="crispEdges"/><rect fill="#121212" x="1329.8" y="513.9" width="12.2" height="24.65" shape-rendering="crispEdges"/><rect fill="#272727" x="0" y="538.3" width="305" height="24.65" shape-rendering="crispEdges"/><rect fill="#121212" x="305" y="538.3" width="12.2" height="24.65" shape-rendering="crispEdges"/><rect fill="#121212" x="317.2" y="538.3" width="12.2" height="24.65" shape-rendering="crispEdges"/><rect fill="#121212" x="329.4" y="538.3" width="183" height="24.65" shape-rendering="crispEdges"/><rect fill="#121212" x="512.4" y="538.3" width="817.4" height="24.65" shape-rendering="crispEdges"/><rect fill="#121212" x="1329.8" y="538.3" width="12.2" height="24.65" shape-rendering="crispEdges"/><rect fill="#272727" x="0" y="562.7" width="305" height="24.65" shape-rendering="crispEdges"/><rect fill="#121212" x="305" y="562.7" width="12.2" height="24.65" shape-rendering="crispEdges"/><rect fill="#121212" x="317.2" y="562.7" width="12.2" height="24.65" shape-rendering="crispEdges"/><rect fill="#121212" x="329.4" y="562.7" width="183" height="24.65" shape-rendering="crispEdges"/><rect fill="#121212" x="512.4" y="562.7" width="817.4" height="24.65" shape-rendering="crispEdges"/><rect fill="#121212" x="1329.8" y="562.7" width="12.2" height="24.65" shape-rendering="crispEdges"/><rect fill="#272727" x="0" y="587.1" width="305" height="24.65" shape-rendering="crispEdges"/><rect fill="#121212" x="305" y="587.1" width="12.2" height="24.65" shape-rendering="crispEdges"/><rect fill="#121212" x="317.2" y="587.1" width="12.2" height="24.65" shape-rendering="crispEdges"/><rect fill="#121212" x="329.4" y="587.1" width="134.2" height="24.65" shape-rendering="crispEdges"/><rect fill="#121212" x="463.6" y="587.1" width="866.2" height="24.65" shape-rendering="crispEdges"/><rect fill="#121212" x="1329.8" y="587.1" width="12.2" height="24.65" shape-rendering="crispEdges"/><rect fill="#272727" x="0" y="611.5" width="305" height="24.65" shape-rendering="crispEdges"/><rect fill="#121212" x="305" y="611.5" width="12.2" height="24.65" shape-rendering="crispEdges"/><rect fill="#121212" x="317.2" y="611.5" width="12.2" height="24.65" shape-rendering="crispEdges"/><rect fill="#121212" x="329.4" y="611.5" width="48.8" height="24.65" shape-rendering="crispEdges"/><rect fill="#121212" x="378.2" y="611.5" width="951.6" height="24.65" shape-rendering="crispEdges"/><rect fill="#121212" x="1329.8" y="611.5" width="12.2" height="24.65" shape-rendering="crispEdges"/><rect fill="#272727" x="0" y="635.9" width="305" height="24.65" shape-rendering="crispEdges"/><rect fill="#121212" x="305" y="635.9" width="12.2" height="24.65" shape-rendering="crispEdges"/><rect fill="#121212" x="317.2" y="635.9" width="12.2" height="24.65" shape-rendering="crispEdges"/><rect fill="#121212" x="329.4" y="635.9" width="122" height="24.65" shape-rendering="crispEdges"/><rect fill="#121212" x="451.4" y="635.9" width="878.4" height="24.65" shape-rendering="crispEdges"/><rect fill="#121212" x="1329.8" y="635.9" width="12.2" height="24.65" shape-rendering="crispEdges"/><rect fill="#272727" x="0" y="660.3" width="305" height="24.65" shape-rendering="crispEdges"/><rect fill="#121212" x="305" y="660.3" width="12.2" height="24.65" shape-rendering="crispEdges"/><rect fill="#121212" x="317.2" y="660.3" width="12.2" height="24.65" shape-rendering="crispEdges"/><rect fill="#121212" x="329.4" y="660.3" width="0" height="24.65" shape-rendering="crispEdges"/><rect fill="#121212" x="329.4" y="660.3" width="1000.4" height="24.65" shape-rendering="crispEdges"/><rect fill="#121212" x="1329.8" y="660.3" width="12.2" height="24.65" shape-rendering="crispEdges"/><rect fill="#272727" x="0" y="684.7" width="305" height="24.65" shape-rendering="crispEdges"/><rect fill="#121212" x="305" y="684.7" width="12.2" height="24.65" shape-rendering="crispEdges"/><rect fill="#121212" x="317.2" y="684.7" width="1024.8" height="24.65" shape-rendering="crispEdges"/><rect fill="#242f38" x="0" y="709.1" width="48.8" height="24.65" shape-rendering="crispEdges"/><rect fill="#242f38" x="48.8" y="709.1" width="61" height="24.65" shape-rendering="crispEdges"/><rect fill="#242f38" x="109.8" y="709.1" width="48.8" height="24.65" shape-rendering="crispEdges"/><rect fill="#242f38" x="158.6" y="709.1" width="73.2" height="24.65" shape-rendering="crispEdges"/><rect fill="#242f38" x="231.8" y="709.1" width="48.8" height="24.65" shape-rendering="crispEdges"/><rect fill="#242f38" x="280.6" y="709.1" width="122" height="24.65" shape-rendering="crispEdges"/><rect fill="#242f38" x="402.6" y="709.1" width="793" height="24.65" shape-rendering="crispEdges"/><rect fill="#242f38" x="1195.6" y="709.1" width="12.2" height="24.65" shape-rendering="crispEdges"/><rect fill="#242f38" x="1207.8" y="709.1" width="24.4" height="24.65" shape-rendering="crispEdges"/><rect fill="#242f38" x="1232.2" y="709.1" width="97.6" height="24.65" shape-rendering="crispEdges"/><rect fill="#242f38" x="1329.8" y="709.1" width="12.2" height="24.65" shape-rendering="crispEdges"/>
    <g class="terminal-35770469-matrix">
    <text class="terminal-35770469-r2" x="12.2" y="20" textLength="12.2" clip-path="url(#terminal-35770469-line-0)">⭘</text><text class="terminal-35770469-r2" x="622.2" y="20" textLength="73.2" clip-path="url(#terminal-35770469-line-0)">tuuuui</text><text class="terminal-35770469-r1" x="1342" y="20" textLength="12.2" clip-path="url(#terminal-35770469-line-0)">
</text><text class="terminal-35770469-r3" x="12.2" y="44.4" textLength="12.2" clip-path="url(#terminal-35770469-line-1)">▐</text><text class="terminal-35770469-r4" x="24.4" y="44.4" textLength="12.2" clip-path="url(#terminal-35770469-line-1)">X</text><text class="terminal-35770469-r3" x="36.6" y="44.4" textLength="12.2" clip-path="url(#terminal-35770469-line-1)">▌</text><text class="terminal-35770469-r2" x="48.8" y="44.4" textLength="170.8" clip-path="url(#terminal-35770469-line-1)">&#160;Changed&#160;only&#160;</text><text class="terminal-35770469-r5" x="305" y="44.4" textLength="12.2" clip-path="url(#terminal-35770469-line-1)">│</text><text class="terminal-35770469-r6" x="317.2" y="44.4" textLength="12.2" clip-path="url(#terminal-35770469-line-1)">▊</text><text class="terminal-35770469-r7" x="329.4" y="44.4" textLength="1000.4" clip-path="url(#terminal-35770469-line-1)">▔▔▔▔▔▔▔▔▔▔▔▔▔▔▔▔▔▔▔▔▔▔▔▔▔▔▔▔▔▔▔▔▔▔▔▔▔▔▔▔▔▔▔▔▔▔▔▔▔▔▔▔▔▔▔▔▔▔▔▔▔▔▔▔▔▔▔▔▔▔▔▔▔▔▔▔▔▔▔▔▔▔</text><text class="terminal-35770469-r7" x="1329.8" y="44.4" textLength="12.2" clip-path="url(#terminal-35770469-line-1)">▎</text><text class="terminal-35770469-r1" x="1342" y="44.4" textLength="12.2" clip-path="url(#terminal-35770469-line-1)">
</text><text class="terminal-35770469-r2" x="0" y="68.8" textLength="24.4" clip-path="url(#terminal-35770469-line-2)">📂&#160;</text><text class="terminal-35770469-r8" x="36.6" y="68.8" textLength="134.2" clip-path="url(#terminal-35770469-line-2)">tmp48etv80_</text><text class="terminal-35770469-r5" x="305" y="68.8" textLength="12.2" clip-path="url(#terminal-35770469-line-2)">│</text><text class="terminal-35770469-r6" x="317.2" y="68.8" textLength="12.2" clip-path="url(#terminal-35770469-line-2)">▊</text><text class="terminal-35770469-r2" x="341.6" y="68.8" textLength="573.4" clip-path="url(#terminal-35770469-line-2)">9f102f2&#160;&#160;0&#160;seconds&#160;ago&#160;&#160;&#160;t&#160;&#160;&#160;&#160;&#160;&#160;&#160;&#160;&#160;&#160;&#160;&#160;&#160;&#160;&#160;&#160;&#160;init</text><text class="terminal-35770469-r7" x="1329.8" y="68.8" textLength="12.2" clip-path="url(#terminal-35770469-line-2)">▎</text><text class="terminal-35770469-r1" x="1342" y="68.8" textLength="12.2" clip-path="url(#terminal-35770469-line-2)">
</text><text class="terminal-35770469-r9" x="0" y="93.2" textLength="48.8" clip-path="url(#terminal-35770469-line-3)">├──&#160;</text><text class="terminal-35770469-r2" x="48.8" y="93.2" textLength="24.4" clip-path="url(#terminal-35770469-line-3)">📁&#160;</text><text class="terminal-35770469-r10" x="85.4" y="93.2" textLength="48.8" clip-path="url(#terminal-35770469-line-3)">.git</text><text class="terminal-35770469-r5" x="305" y="93.2" textLength="12.2" clip-path="url(#terminal-35770469-line-3)">│</text><text class="terminal-35770469-r6" x="317.2" y="93.2" textLength="12.2" clip-path="url(#terminal-35770469-line-3)">▊</text><text class="terminal-35770469-r7" x="1329.8" y="93.2" textLength="12.2" clip-path="url(#terminal-35770469-line-3)">▎</text><text class="terminal-35770469-r1" x="1342" y="93.2" textLength="12.2" clip-path="url(#terminal-35770469-line-3)">
</text><text class="terminal-35770469-r9" x="0" y="117.6" textLength="48.8" clip-path="url(#terminal-35770469-line-4)">├──&#160;</text><text class="terminal-35770469-r11" x="48.8" y="117.6" textLength="24.4" clip-path="url(#terminal-35770469-line-4)">📄&#160;</text><text class="terminal-35770469-r11" x="85.4" y="117.6" textLength="61" clip-path="url(#terminal-35770469-line-4)">alpha</text><text class="terminal-35770469-r12" x="146.4" y="117.6" textLength="36.6" clip-path="url(#terminal-35770469-line-4)">.py</text><text class="terminal-35770469-r13" x="183" y="117.6" textLength="24.4" clip-path="url(#terminal-35770469-line-4)">&#160;*</text><text class="terminal-35770469-r5" x="305" y="117.6" textLength="12.2" clip-path="url(#terminal-35770469-line-4)">│</text><text class="terminal-35770469-r6" x="317.2" y="117.6" textLength="12.2" clip-path="url(#terminal-35770469-line-4)">▊</text><text class="terminal-35770469-r7" x="1329.8" y="117.6" textLength="12.2" clip-path="url(#terminal-35770469-line-4)">▎</text><text class="terminal-35770469-r1" x="1342" y="117.6" textLength="12.2" clip-path="url(#terminal-35770469-line-4)">
</text><text class="terminal-35770469-r9" x="0" y="142" textLength="48.8" clip-path="url(#terminal-35770469-line-5)">├──&#160;</text><text class="terminal-35770469-r2" x="48.8" y="142" textLength="24.4" clip-path="url(#terminal-35770469-line-5)">📄&#160;</text><text class="terminal-35770469-r2" x="85.4" y="142" textLength="48.8" clip-path="url(#terminal-35770469-line-5)">beta</text><text class="terminal-35770469-r14" x="134.2" y="142" textLength="36.6" clip-path="url(#terminal-35770469-line-5)">.py</text><text class="terminal-35770469-r5" x="305" y="142" textLength="12.2" clip-path="url(#terminal-35770469-line-5)">│</text><text class="terminal-35770469-r6" x="317.2" y="142" textLength="12.2" clip-path="url(#terminal-35770469-line-5)">▊</text><text class="terminal-35770469-r7" x="1329.8" y="142" textLength="12.2" clip-path="url(#terminal-35770469-line-5)">▎</text><text class="terminal-35770469-r1" x="1342" y="142" textLength="12.2" clip-path="url(#terminal-35770469-line-5)">
</text><text class="terminal-35770469-r9" x="0" y="166.4" textLength="48.8" clip-path="url(#terminal-35770469-line-6)">├──&#160;</text><text class="terminal-35770469-r2" x="48.8" y="166.4" textLength="24.4" clip-path="url(#terminal-35770469-line-6)">📄&#160;</text><text class="terminal-35770469-r2" x="85.4" y="166.4" textLength="61" clip-path="url(#terminal-35770469-line-6)">gamma</text><text class="terminal-35770469-r14" x="146.4" y="166.4" textLength="36.6" clip-path="url(#terminal-35770469-line-6)">.py</text><text class="terminal-35770469-r5" x="305" y="166.4" textLength="12.2" clip-path="url(#terminal-35770469-line-6)">│</text><text class="terminal-35770469-r6" x="317.2" y="166.4" textLength="12.2" clip-path="url(#terminal-35770469-line-6)">▊</text><text class="terminal-35770469-r7" x="1329.8" y="166.4" textLength="12.2" clip-path="url(#terminal-35770469-line-6)">▎</text><text class="terminal-35770469-r1" x="1342" y="166.4" textLength="12.2" clip-path="url(#terminal-35770469-line-6)">
</text><text class="terminal-35770469-r9" x="0" y="190.8" textLength="48.8" clip-path="url(#terminal-35770469-line-7)">└──&#160;</text><text class="terminal-35770469-r11" x="48.8" y="190.8" textLength="24.4" clip-path="url(#terminal-35770469-line-7)">📄&#160;</text><text class="terminal-35770469-r11" x="85.4" y="190.8" textLength="73.2" clip-path="url(#terminal-35770469-line-7)">readme</text><text class="terminal-35770469-r12" x="158.6" y="190.8" textLength="36.6" clip-path="url(#terminal-35770469-line-7)">.md</text><text class="terminal-35770469-r13" x="195.2" y="190.8" textLength="24.4" clip-path="url(#terminal-35770469-line-7)">&#160;*</text><text class="terminal-35770469-r5" x="305" y="190.8" textLength="12.2" clip-path="url(#terminal-35770469-line-7)">│</text><text class="terminal-35770469-r6" x="317.2" y="190.8" textLength="12.2" clip-path="url(#terminal-35770469-line-7)">▊</text><text class="terminal-35770469-r7" x="1329.8" y="190.8" textLength="12.2" clip-path="url(#terminal-35770469-line-7)">▎</text><text class="terminal-35770469-r1" x="1342" y="190.8" textLength="12.2" clip-path="url(#terminal-35770469-line-7)">
</text><text class="terminal-35770469-r5" x="305" y="215.2" textLength="12.2" clip-path="url(#terminal-35770469-line-8)">│</text><text class="terminal-35770469-r6" x="317.2" y="215.2" textLength="12.2" clip-path="url(#terminal-35770469-line-8)">▊</text><text class="terminal-35770469-r7" x="1329.8" y="215.2" textLength="12.2" clip-path="url(#terminal-35770469-line-8)">▎</text><text class="terminal-35770469-r1" x="1342" y="215.2" textLength="12.2" clip-path="url(#terminal-35770469-line-8)">
</text><text class="terminal-35770469-r5" x="305" y="239.6" textLength="12.2" clip-path="url(#terminal-35770469-line-9)">│</text><text class="terminal-35770469-r6" x="317.2" y="239.6" textLength="12.2" clip-path="url(#terminal-35770469-line-9)">▊</text><text class="terminal-35770469-r7" x="1329.8" y="239.6" textLength="12.2" clip-path="url(#terminal-35770469-line-9)">▎</text><text class="terminal-35770469-r1" x="1342" y="239.6" textLength="12.2" clip-path="url(#terminal-35770469-line-9)">
</text><text class="terminal-35770469-r5" x="305" y="264" textLength="12.2" clip-path="url(#terminal-35770469-line-10)">│</text><text class="terminal-35770469-r6" x="317.2" y="264" textLength="12.2" clip-path="url(#terminal-35770469-line-10)">▊</text><text class="terminal-35770469-r7" x="1329.8" y="264" textLength="12.2" clip-path="url(#terminal-35770469-line-10)">▎</text><text class="terminal-35770469-r1" x="1342" y="264" textLength="12.2" clip-path="url(#terminal-35770469-line-10)">
</text><text class="terminal-35770469-r5" x="305" y="288.4" textLength="12.2" clip-path="url(#terminal-35770469-line-11)">│</text><text class="terminal-35770469-r5" x="317.2" y="288.4" textLength="12.2" clip-path="url(#terminal-35770469-line-11)">└</text><text class="terminal-35770469-r5" x="329.4" y="288.4" textLength="1000.4" clip-path="url(#terminal-35770469-line-11)">──────────────────────────────────────────────────────────────────────────────────</text><text class="terminal-35770469-r5" x="1329.8" y="288.4" textLength="12.2" clip-path="url(#terminal-35770469-line-11)">┘</text><text class="terminal-35770469-r1" x="1342" y="288.4" textLength="12.2" clip-path="url(#terminal-35770469-line-11)">
</text><text class="terminal-35770469-r5" x="305" y="312.8" textLength="12.2" clip-path="url(#terminal-35770469-line-12)">│</text><text class="terminal-35770469-r2" x="329.4" y="312.8" textLength="158.6" clip-path="url(#terminal-35770469-line-12)">Unstaged&#160;diff</text><text class="terminal-35770469-r8" x="1183.4" y="312.8" textLength="122" clip-path="url(#terminal-35770469-line-12)">&#160;⟳&#160;Reload&#160;</text><text class="terminal-35770469-r1" x="1342" y="312.8" textLength="12.2" clip-path="url(#terminal-35770469-line-12)">
</text><text class="terminal-35770469-r5" x="305" y="337.2" textLength="12.2" clip-path="url(#terminal-35770469-line-13)">│</text><text class="terminal-35770469-r13" x="329.4" y="337.2" textLength="390.4" clip-path="url(#terminal-35770469-line-13)">diff&#160;--git&#160;a/alpha.py&#160;b/alpha.py</text><text class="terminal-35770469-r1" x="1342" y="337.2" textLength="12.2" clip-path="url(#terminal-35770469-line-13)">
</text><text class="terminal-35770469-r5" x="305" y="361.6" textLength="12.2" clip-path="url(#terminal-35770469-line-14)">│</text><text class="terminal-35770469-r13" x="329.4" y="361.6" textLength="353.8" clip-path="url(#terminal-35770469-line-14)">index&#160;bafc5d9..7a56633&#160;100644</text><text class="terminal-35770469-r1" x="1342" y="361.6" textLength="12.2" clip-path="url(#terminal-35770469-line-14)">
</text><text class="terminal-35770469-r5" x="305" y="386" textLength="12.2" clip-path="url(#terminal-35770469-line-15)">│</text><text class="terminal-35770469-r13" x="329.4" y="386" textLength="170.8" clip-path="url(#terminal-35770469-line-15)">---&#160;a/alpha.py</text><text class="terminal-35770469-r1" x="1342" y="386" textLength="12.2" clip-path="url(#terminal-35770469-line-15)">
</text><text class="terminal-35770469-r5" x="305" y="410.4" textLength="12.2" clip-path="url(#terminal-35770469-line-16)">│</text><text class="terminal-35770469-r13" x="329.4" y="410.4" textLength="170.8" clip-path="url(#terminal-35770469-line-16)">+++&#160;b/alpha.py</text><text class="terminal-35770469-r1" x="1342" y="410.4" textLength="12.2" clip-path="url(#terminal-35770469-line-16)">
</text><text class="terminal-35770469-r5" x="305" y="434.8" textLength="12.2" clip-path="url(#terminal-35770469-line-17)">│</text><text class="terminal-35770469-r15" x="329.4" y="434.8" textLength="134.2" clip-path="url(#terminal-35770469-line-17)">@@&#160;-1&#160;+1&#160;@@</text><text class="terminal-35770469-r1" x="1342" y="434.8" textLength="12.2" clip-path="url(#terminal-35770469-line-17)">
</text><text class="terminal-35770469-r5" x="305" y="459.2" textLength="12.2" clip-path="url(#terminal-35770469-line-18)">│</text><text class="terminal-35770469-r16" x="329.4" y="459.2" textLength="48.8" clip-path="url(#terminal-35770469-line-18)">-x=1</text><text class="terminal-35770469-r1" x="1342" y="459.2" textLength="12.2" clip-path="url(#terminal-35770469-line-18)">
</text><text class="terminal-35770469-r5" x="305" y="483.6" textLength="12.2" clip-path="url(#terminal-35770469-line-19)">│</text><text class="terminal-35770469-r17" x="329.4" y="483.6" textLength="48.8" clip-path="url(#terminal-35770469-line-19)">+x=2</text><text class="terminal-35770469-r1" x="1342" y="483.6" textLength="12.2" clip-path="url(#terminal-35770469-line-19)">
</text><text class="terminal-35770469-r5" x="305" y="508" textLength="12.2" clip-path="url(#terminal-35770469-line-20)">│</text><text class="terminal-35770469-r13" x="329.4" y="508" textLength="414.8" clip-path="url(#terminal-35770469-line-20)">diff&#160;--git&#160;a/readme.md&#160;b/readme.md</text><text class="terminal-35770469-r1" x="1342" y="508" textLength="12.2" clip-path="url(#terminal-35770469-line-20)">
</text><text class="terminal-35770469-r5" x="305" y="532.4" textLength="12.2" clip-path="url(#terminal-35770469-line-21)">│</text><text class="terminal-35770469-r13" x="329.4" y="532.4" textLength="353.8" clip-path="url(#terminal-35770469-line-21)">index&#160;bafc5d9..df97349&#160;100644</text><text class="terminal-35770469-r1" x="1342" y="532.4" textLength="12.2" clip-path="url(#terminal-35770469-line-21)">
</text><text class="terminal-35770469-r5" x="305" y="556.8" textLength="12.2" clip-path="url(#terminal-35770469-line-22)">│</text><text class="terminal-35770469-r13" x="329.4" y="556.8" textLength="183" clip-path="url(#terminal-35770469-line-22)">---&#160;a/readme.md</text><text class="terminal-35770469-r1" x="1342" y="556.8" textLength="12.2" clip-path="url(#terminal-35770469-line-22)">
</text><text class="terminal-35770469-r5" x="305" y="581.2" textLength="12.2" clip-path="url(#terminal-35770469-line-23)">│</text><text class="terminal-35770469-r13" x="329.4" y="581.2" textLength="183" clip-path="url(#terminal-35770469-line-23)">+++&#160;b/readme.md</text><text class="terminal-35770469-r1" x="1342" y="581.2" textLength="12.2" clip-path="url(#terminal-35770469-line-23)">
</text><text class="terminal-35770469-r5" x="305" y="605.6" textLength="12.2" clip-path="url(#terminal-35770469-line-24)">│</text><text class="terminal-35770469-r15" x="329.4" y="605.6" textLength="134.2" clip-path="url(#terminal-35770469-line-24)">@@&#160;-1&#160;+1&#160;@@</text><text class="terminal-35770469-r1" x="1342" y="605.6" textLength="12.2" clip-path="url(#terminal-35770469-line-24)">
</text><text class="terminal-35770469-r5" x="305" y="630" textLength="12.2" clip-path="url(#terminal-35770469-line-25)">│</text><text class="terminal-35770469-r16" x="329.4" y="630" textLength="48.8" clip-path="url(#terminal-35770469-line-25)">-x=1</text><text class="terminal-35770469-r1" x="1342" y="630" textLength="12.2" clip-path="url(#terminal-35770469-line-25)">
</text><text class="terminal-35770469-r5" x="305" y="654.4" textLength="12.2" clip-path="url(#terminal-35770469-line-26)">│</text><text class="terminal-35770469-r17" x="329.4" y="654.4" textLength="122" clip-path="url(#terminal-35770469-line-26)">+#&#160;changed</text><text class="terminal-35770469-r1" x="1342" y="654.4" textLength="12.2" clip-path="url(#terminal-35770469-line-26)">
</text><text class="terminal-35770469-r5" x="305" y="678.8" textLength="12.2" clip-path="url(#terminal-35770469-line-27)">│</text><text class="terminal-35770469-r1" x="1342" y="678.8" textLength="12.2" clip-path="url(#terminal-35770469-line-27)">
</text><text class="terminal-35770469-r5" x="305" y="703.2" textLength="12.2" clip-path="url(#terminal-35770469-line-28)">│</text><text class="terminal-35770469-r1" x="1342" y="703.2" textLength="12.2" clip-path="url(#terminal-35770469-line-28)">
</text><text class="terminal-35770469-r18" x="0" y="727.6" textLength="48.8" clip-path="url(#terminal-35770469-line-29)">&#160;^q&#160;</text><text class="terminal-35770469-r2" x="48.8" y="727.6" textLength="61" clip-path="url(#terminal-35770469-line-29)">Quit&#160;</text><text class="terminal-35770469-r18" x="109.8" y="727.6" textLength="48.8" clip-path="url(#terminal-35770469-line-29)">&#160;^x&#160;</text><text class="terminal-35770469-r2" x="158.6" y="727.6" textLength="73.2" clip-path="url(#terminal-35770469-line-29)">C-x&#160;…&#160;</text><text class="terminal-35770469-r18" x="231.8" y="727.6" textLength="48.8" clip-path="url(#terminal-35770469-line-29)">&#160;f2&#160;</text><text class="terminal-35770469-r2" x="280.6" y="727.6" textLength="122" clip-path="url(#terminal-35770469-line-29)">MD&#160;render&#160;</text><text class="terminal-35770469-r19" x="1195.6" y="727.6" textLength="12.2" clip-path="url(#terminal-35770469-line-29)">▏</text><text class="terminal-35770469-r18" x="1207.8" y="727.6" textLength="24.4" clip-path="url(#terminal-35770469-line-29)">^\</text><text class="terminal-35770469-r2" x="1232.2" y="727.6" textLength="97.6" clip-path="url(#terminal-35770469-line-29)">&#160;palette</text>
    </g>
    </g>
</svg>
