<svg class="rich-terminal" viewBox="0 0 1385 782.0" xmlns="http://www.w3.org/2000/svg">
    <!-- Generated with Rich https://www.textualize.io -->
    <style>

    @font-face {
        font-family: "Fira Code";
        src: local("FiraCode-Regular"),
                url("https://cdnjs.cloudflare.com/ajax/libs/firacode/6.2.0/woff2/FiraCode-Regular.woff2") format("woff2"),
                url("https://cdnjs.cloudflare.com/ajax/libs/firacode/6.2.0/woff/FiraCode-Regular.woff") format("woff");
        font-style: normal;
        font-weight: 400;
    }
    @font-face {
        font-family: "Fira Code";
        src: local("FiraCode-Bold"),
                url("https://cdnjs.cloudflare.com/ajax/libs/firacode/6.2.0/woff2/FiraCode-Bold.woff2") format("woff2"),
                url("https://cdnjs.cloudflare.com/ajax/libs/firacode/6.2.0/woff/FiraCode-Bold.woff") format("woff");
        font-style: bold;
        font-weight: 700;
    }

    .terminal-2326127885-matrix {
        font-family: Fira Code, monospace;
        font-size: 20px;
        line-height: 24.4px;
        font-variant-east-asian: full-width;
    }

    .terminal-2326127885-title {
        font-size: 18px;
        font-weight: bold;
        font-family: arial;
    }

    .terminal-2326127885-r1 { fill: #c5c8c6 }
.terminal-2326127885-r2 { fill: #e0e0e0 }
.terminal-2326127885-r3 { fill: #242f38 }
.terminal-2326127885-r4 { fill: #000f18 }
.terminal-2326127885-r5 { fill: #fea62b }
.terminal-2326127885-r6 { fill: #121212 }
.terminal-2326127885-r7 { fill: #191919 }
.terminal-2326127885-r8 { fill: #ddedf9;font-weight: bold }
.terminal-2326127885-r9 { fill: #ffff00 }
.terminal-2326127885-r10 { fill: #0178d4 }
.terminal-2326127885-r11 { fill: #a1a1a1;font-weight: bold }
.terminal-2326127885-r12 { fill: #008000 }
.terminal-2326127885-r13 { fill: #e0e0e0;font-style: italic; }
.terminal-2326127885-r14 { fill: #fd971f }
.terminal-2326127885-r15 { fill: #fd971f;font-style: italic; }
.terminal-2326127885-r16 { fill: #fd971f;font-weight: bold }
.terminal-2326127885-r17 { fill: #58d1eb }
.terminal-2326127885-r18 { fill: #98e024 }
.terminal-2326127885-r19 { fill: #ffa62b;font-weight: bold }
.terminal-2326127885-r20 { fill: #495259 }
    </style>

    <defs>
    <clipPath id="terminal-2326127885-clip-terminal">
      <rect x="0" y="0" width="1365.3999999999999" height="731.0" />
    </clipPath>
    <clipPath id="terminal-2326127885-line-0">
    <rect x="0" y="1.5" width="1366.4" height="24.65"/>
            </clipPath>
<clipPath id="terminal-2326127885-line-1">
    <rect x="0" y="25.9" width="1366.4" height="24.65"/>
            </clipPath>
<clipPath id="terminal-2326127885-line-2">
    <rect x="0" y="50.3" width="1366.4" height="24.65"/>
            </clipPath>
<clipPath id="terminal-2326127885-line-3">
    <rect x="0" y="74.7" width="1366.4" height="24.65"/>
            </clipPath>
<clipPath id="terminal-2326127885-line-4">
    <rect x="0" y="99.1" width="1366.4" height="24.65"/>
            </clipPath>
<clipPath id="terminal-2326127885-line-5">
    <rect x="0" y="123.5" width="1366.4" height="24.65"/>
            </clipPath>
<clipPath id="terminal-2326127885-line-6">
    <rect x="0" y="147.9" width="1366.4" height="24.65"/>
            </clipPath>
<clipPath id="terminal-2326127885-line-7">
    <rect x="0" y="172.3" width="1366.4" height="24.65"/>
            </clipPath>
<clipPath id="terminal-2326127885-line-8">
    <rect x="0" y="196.7" width="1366.4" height="24.65"/>
            </clipPath>
<clipPath id="terminal-2326127885-line-9">
    <rect x="0" y="221.1" width="1366.4" height="24.65"/>
            </clipPath>
<clipPath id="terminal-2326127885-line-10">
    <rect x="0" y="245.5" width="1366.4" height="24.65"/>
            </clipPath>
<clipPath id="terminal-2326127885-line-11">
    <rect x="0" y="269.9" width="1366.4" height="24.65"/>
            </clipPath>
<clipPath id="terminal-2326127885-line-12">
    <rect x="0" y="294.3" width="1366.4" height="24.65"/>
            </clipPath>
<clipPath id="terminal-2326127885-line-13">
    <rect x="0" y="318.7" width="1366.4" height="24.65"/>
            </clipPath>
<clipPath id="terminal-2326127885-line-14">
    <rect x="0" y="343.1" width="1366.4" height="24.65"/>
            </clipPath>
<clipPath id="terminal-2326127885-line-15">
    <rect x="0" y="367.5" width="1366.4" height="24.65"/>
            </clipPath>
<clipPath id="terminal-2326127885-line-16">
    <rect x="0" y="391.9" width="1366.4" height="24.65"/>
            </clipPath>
<clipPath id="terminal-2326127885-line-17">
    <rect x="0" y="416.3" width="1366.4" height="24.65"/>
            </clipPath>
<clipPath id="terminal-2326127885-line-18">
    <rect x="0" y="440.7" width="1366.4" height="24.65"/>
            </clipPath>
<clipPath id="terminal-2326127885-line-19">
    <rect x="0" y="465.1" width="1366.4" height="24.65"/>
            </clipPath>
<clipPath id="terminal-2326127885-line-20">
    <rect x="0" y="489.5" width="1366.4" height="24.65"/>
            </clipPath>
<clipPath id="terminal-2326127885-line-21">
    <rect x="0" y="513.9" width="1366.4" height="24.65"/>
            </clipPath>
<clipPath id="terminal-2326127885-line-22">
    <rect x="0" y="538.3" width="1366.4" height="24.65"/>
            </clipPath>
<clipPath id="terminal-2326127885-line-23">
    <rect x="0" y="562.7" width="1366.4" height="24.65"/>
            </clipPath>
<clipPath id="terminal-2326127885-line-24">
    <rect x="0" y="587.1" width="1366.4" height="24.65"/>
            </clipPath>
<clipPath id="terminal-2326127885-line-25">
    <rect x="0" y="611.5" width="1366.4" height="24.65"/>
            </clipPath>
<clipPath id="terminal-2326127885-line-26">
    <rect x="0" y="635.9" width="1366.4" height="24.65"/>
            </clipPath>
<clipPath id="terminal-2326127885-line-27">
    <rect x="0" y="660.3" width="1366.4" height="24.65"/>
            </clipPath>
<clipPath id="terminal-2326127885-line-28">
    <rect x="0" y="684.7" width="1366.4" height="24.65"/>
            </clipPath>
    </defs>

    <rect fill="#292929" stroke="rgba(255,255,255,0.35)" stroke-width="1" x="1" y="1" width="1383" height="780" rx="8"/><text class="terminal-2326127885-title" fill="#c5c8c6" text-anchor="middle" x="691" y="27">git&#160;list&#160;—&#160;Unstaged&#160;/&#160;Staged&#160;rows&#160;+&#160;commits</text>
            <g transform="translate(26,22)">
            <circle cx="0" cy="0" r="7" fill="#ff5f57"/>
            <circle cx="22" cy="0" r="7" fill="#febc2e"/>
            <circle cx="44" cy="0" r="7" fill="#28c840"/>
            </g>
        
    <g transform="translate(9, 41)" clip-path="url(#terminal-2326127885-clip-terminal)">
    <rect fill="#242f38" x="0" y="1.5" width="12.2" height="24.65" shape-rendering="crispEdges"/><rect fill="#242f38" x="12.2" y="1.5" width="12.2" height="24.65" shape-rendering="crispEdges"/><rect fill="#242f38" x="24.4" y="1.5" width="61" height="24.65" shape-rendering="crispEdges"/><rect fill="#242f38" x="85.4" y="1.5" width="12.2" height="24.65" shape-rendering="crispEdges"/><rect fill="#242f38" x="97.6" y="1.5" width="536.8" height="24.65" shape-rendering="crispEdges"/><rect fill="#242f38" x="634.4" y="1.5" width="73.2" height="24.65" shape-rendering="crispEdges"/><rect fill="#242f38" x="707.6" y="1.5" width="536.8" height="24.65" shape-rendering="crispEdges"/><rect fill="#242f38" x="1244.4" y="1.5" width="12.2" height="24.65" shape-rendering="crispEdges"/><rect fill="#242f38" x="1256.6" y="1.5" width="0" height="24.65" shape-rendering="crispEdges"/><rect fill="#242f38" x="1256.6" y="1.5" width="97.6" height="24.65" shape-rendering="crispEdges"/><rect fill="#242f38" x="1354.2" y="1.5" width="12.2" height="24.65" shape-rendering="crispEdges"/><rect fill="#242f38" x="0" y="25.9" width="12.2" height="24.65" shape-rendering="crispEdges"/><rect fill="#242f38" x="12.2" y="25.9" width="12.2" height="24.65" shape-rendering="crispEdges"/><rect fill="#242f38" x="24.4" y="25.9" width="12.2" height="24.65" shape-rendering="crispEdges"/><rect fill="#242f38" x="36.6" y="25.9" width="12.2" height="24.65" shape-rendering="crispEdges"/><rect fill="#242f38" x="48.8" y="25.9" width="170.8" height="24.65" shape-rendering="crispEdges"/><rect fill="#242f38" x="219.6" y="25.9" width="12.2" height="24.65" shape-rendering="crispEdges"/><rect fill="#121212" x="231.8" y="25.9" width="73.2" height="24.65" shape-rendering="crispEdges"/><rect fill="#121212" x="305" y="25.9" width="12.2" height="24.65" shape-rendering="crispEdges"/><rect fill="#191919" x="317.2" y="25.9" width="12.2" height="24.65" shape-rendering="crispEdges"/><rect fill="#1e1e1e" x="329.4" y="25.9" width="1024.8" height="24.65" shape-rendering="crispEdges"/><rect fill="#121212" x="1354.2" y="25.9" width="12.2" height="24.65" shape-rendering="crispEdges"/><rect fill="#272727" x="0" y="50.3" width="36.6" height="24.65" shape-rendering="crispEdges"/><rect fill="#0178d4" x="36.6" y="50.3" width="134.2" height="24.65" shape-rendering="crispEdges"/><rect fill="#272727" x="170.8" y="50.3" width="134.2" height="24.65" shape-rendering="crispEdges"/><rect fill="#121212" x="305" y="50.3" width="12.2" height="24.65" shape-rendering="crispEdges"/><rect fill="#191919" x="317.2" y="50.3" width="12.2" height="24.65" shape-rendering="crispEdges"/><rect fill="#1e1e1e" x="329.4" y="50.3" width="12.2" height="24.65" shape-rendering="crispEdges"/><rect fill="#1e1e1e" x="341.6" y="50.3" width="219.6" height="24.65" shape-rendering="crispEdges"/><rect fill="#1e1e1e" x="561.2" y="50.3" width="780.8" height="24.65" shape-rendering="crispEdges"/><rect fill="#1e1e1e" x="1342" y="50.3" width="12.2" height="24.65" shape-rendering="crispEdges"/><rect fill="#121212" x="1354.2" y="50.3" width="12.2" height="24.65" shape-rendering="crispEdges"/><rect fill="#272727" x="0" y="74.7" width="48.8" height="24.65" shape-rendering="crispEdges"/><rect fill="#272727" x="48.8" y="74.7" width="36.6" height="24.65" shape-rendering="crispEdges"/><rect fill="#272727" x="85.4" y="74.7" width="48.8" height="24.65" shape-rendering="crispEdges"/><rect fill="#272727" x="134.2" y="74.7" width="170.8" height="24.65" shape-rendering="crispEdges"/><rect fill="#121212" x="305" y="74.7" width="12.2" height="24.65" shape-rendering="crispEdges"/><rect fill="#191919" x="317.2" y="74.7" width="12.2" height="24.65" shape-rendering="crispEdges"/><rect fill="#1e1e1e" x="329.4" y="74.7" width="12.2" height="24.65" shape-rendering="crispEdges"/><rect fill="#153854" x="341.6" y="74.7" width="195.2" height="24.65" shape-rendering="crispEdges"/><rect fill="#153854" x="536.8" y="74.7" width="805.2" height="24.65" shape-rendering="crispEdges"/><rect fill="#1e1e1e" x="1342" y="74.7" width="12.2" height="24.65" shape-rendering="crispEdges"/><rect fill="#121212" x="1354.2" y="74.7" width="12.2" height="24.65" shape-rendering="crispEdges"/><rect fill="#272727" x="0" y="99.1" width="48.8" height="24.65" shape-rendering="crispEdges"/><rect fill="#272727" x="48.8" y="99.1" width="36.6" height="24.65" shape-rendering="crispEdges"/><rect fill="#272727" x="85.4" y="99.1" width="61" height="24.65" shape-rendering="crispEdges"/><rect fill="#272727" x="146.4" y="99.1" width="36.6" height="24.65" shape-rendering="crispEdges"/><rect fill="#272727" x="183" y="99.1" width="122" height="24.65" shape-rendering="crispEdges"/><rect fill="#121212" x="305" y="99.1" width="12.2" height="24.65" shape-rendering="crispEdges"/><rect fill="#191919" x="317.2" y="99.1" width="12.2" height="24.65" shape-rendering="crispEdges"/><rect fill="#1e1e1e" x="329.4" y="99.1" width="12.2" height="24.65" shape-rendering="crispEdges"/><rect fill="#1e1e1e" x="341.6" y="99.1" width="695.4" height="24.65" shape-rendering="crispEdges"/><rect fill="#1e1e1e" x="1037" y="99.1" width="305" height="24.65" shape-rendering="crispEdges"/><rect fill="#1e1e1e" x="1342" y="99.1" width="12.2" height="24.65" shape-rendering="crispEdges"/><rect fill="#121212" x="1354.2" y="99.1" width="12.2" height="24.65" shape-rendering="crispEdges"/><rect fill="#272727" x="0" y="123.5" width="48.8" height="24.65" shape-rendering="crispEdges"/><rect fill="#272727" x="48.8" y="123.5" width="36.6" height="24.65" shape-rendering="crispEdges"/><rect fill="#272727" x="85.4" y="123.5" width="48.8" height="24.65" shape-rendering="crispEdges"/><rect fill="#272727" x="134.2" y="123.5" width="36.6" height="24.65" shape-rendering="crispEdges"/><rect fill="#272727" x="170.8" y="123.5" width="134.2" height="24.65" shape-rendering="crispEdges"/><rect fill="#121212" x="305" y="123.5" width="12.2" height="24.65" shape-rendering="crispEdges"/><rect fill="#191919" x="317.2" y="123.5" width="12.2" height="24.65" shape-rendering="crispEdges"/><rect fill="#1e1e1e" x="329.4" y="123.5" width="12.2" height="24.65" shape-rendering="crispEdges"/><rect fill="#1e1e1e" x="341.6" y="123.5" width="1000.4" height="24.65" shape-rendering="crispEdges"/><rect fill="#1e1e1e" x="1342" y="123.5" width="12.2" height="24.65" shape-rendering="crispEdges"/><rect fill="#121212" x="1354.2" y="123.5" width="12.2" height="24.65" shape-rendering="crispEdges"/><rect fill="#272727" x="0" y="147.9" width="48.8" height="24.65" shape-rendering="crispEdges"/><rect fill="#272727" x="48.8" y="147.9" width="36.6" height="24.65" shape-rendering="crispEdges"/><rect fill="#272727" x="85.4" y="147.9" width="61" height="24.65" shape-rendering="crispEdges"/><rect fill="#272727" x="146.4" y="147.9" width="36.6" height="24.65" shape-rendering="crispEdges"/><rect fill="#272727" x="183" y="147.9" width="24.4" height="24.65" shape-rendering="crispEdges"/><rect fill="#272727" x="207.4" y="147.9" width="97.6" height="24.65" shape-rendering="crispEdges"/><rect fill="#121212" x="305" y="147.9" width="12.2" height="24.65" shape-rendering="crispEdges"/><rect fill="#191919" x="317.2" y="147.9" width="12.2" height="24.65" shape-rendering="crispEdges"/><rect fill="#1e1e1e" x="329.4" y="147.9" width="12.2" height="24.65" shape-rendering="crispEdges"/><rect fill="#1e1e1e" x="341.6" y="147.9" width="1000.4" height="24.65" shape-rendering="crispEdges"/><rect fill="#1e1e1e" x="1342" y="147.9" width="12.2" height="24.65" shape-rendering="crispEdges"/><rect fill="#121212" x="1354.2" y="147.9" width="12.2" height="24.65" shape-rendering="crispEdges"/><rect fill="#272727" x="0" y="172.3" width="305" height="24.65" shape-rendering="crispEdges"/><rect fill="#121212" x="305" y="172.3" width="12.2" height="24.65" shape-rendering="crispEdges"/><rect fill="#191919" x="317.2" y="172.3" width="12.2" height="24.65" shape-rendering="crispEdges"/><rect fill="#1e1e1e" x="329.4" y="172.3" width="12.2" height="24.65" shape-rendering="crispEdges"/><rect fill="#1e1e1e" x="341.6" y="172.3" width="1000.4" height="24.65" shape-rendering="crispEdges"/><rect fill="#1e1e1e" x="1342" y="172.3" width="12.2" height="24.65" shape-rendering="crispEdges"/><rect fill="#121212" x="1354.2" y="172.3" width="12.2" height="24.65" shape-rendering="crispEdges"/><rect fill="#272727" x="0" y="196.7" width="305" height="24.65" shape-rendering="crispEdges"/><rect fill="#121212" x="305" y="196.7" width="12.2" height="24.65" shape-rendering="crispEdges"/><rect fill="#191919" x="317.2" y="196.7" width="12.2" height="24.65" shape-rendering="crispEdges"/><rect fill="#1e1e1e" x="329.4" y="196.7" width="12.2" height="24.65" shape-rendering="crispEdges"/><rect fill="#1e1e1e" x="341.6" y="196.7" width="1000.4" height="24.65" shape-rendering="crispEdges"/><rect fill="#1e1e1e" x="1342" y="196.7" width="12.2" height="24.65" shape-rendering="crispEdges"/><rect fill="#121212" x="1354.2" y="196.7" width="12.2" height="24.65" shape-rendering="crispEdges"/><rect fill="#272727" x="0" y="221.1" width="305" height="24.65" shape-rendering="crispEdges"/><rect fill="#121212" x="305" y="221.1" width="12.2" height="24.65" shape-rendering="crispEdges"/><rect fill="#191919" x="317.2" y="221.1" width="12.2" height="24.65" shape-rendering="crispEdges"/><rect fill="#1e1e1e" x="329.4" y="221.1" width="12.2" height="24.65" shape-rendering="crispEdges"/><rect fill="#1e1e1e" x="341.6" y="221.1" width="1000.4" height="24.65" shape-rendering="crispEdges"/><rect fill="#1e1e1e" x="1342" y="221.1" width="12.2" height="24.65" shape-rendering="crispEdges"/><rect fill="#121212" x="1354.2" y="221.1" width="12.2" height="24.65" shape-rendering="crispEdges"/><rect fill="#272727" x="0" y="245.5" width="305" height="24.65" shape-rendering="crispEdges"/><rect fill="#121212" x="305" y="245.5" width="12.2" height="24.65" shape-rendering="crispEdges"/><rect fill="#191919" x="317.2" y="245.5" width="12.2" height="24.65" shape-rendering="crispEdges"/><rect fill="#1e1e1e" x="329.4" y="245.5" width="12.2" height="24.65" shape-rendering="crispEdges"/><rect fill="#1e1e1e" x="341.6" y="245.5" width="1000.4" height="24.65" shape-rendering="crispEdges"/><rect fill="#1e1e1e" x="1342" y="245.5" width="12.2" height="24.65" shape-rendering="crispEdges"/><rect fill="#121212" x="1354.2" y="245.5" width="12.2" height="24.65" shape-rendering="crispEdges"/><rect fill="#272727" x="0" y="269.9" width="305" height="24.65" shape-rendering="crispEdges"/><rect fill="#121212" x="305" y="269.9" width="12.2" height="24.65" shape-rendering="crispEdges"/><rect fill="#1e1e1e" x="317.2" y="269.9" width="12.2" height="24.65" shape-rendering="crispEdges"/><rect fill="#1e1e1e" x="329.4" y="269.9" width="1024.8" height="24.65" shape-rendering="crispEdges"/><rect fill="#1e1e1e" x="1354.2" y="269.9" width="12.2" height="24.65" shape-rendering="crispEdges"/><rect fill="#272727" x="0" y="294.3" width="305" height="24.65" shape-rendering="crispEdges"/><rect fill="#121212" x="305" y="294.3" width="12.2" height="24.65" shape-rendering="crispEdges"/><rect fill="#242f38" x="317.2" y="294.3" width="12.2" height="24.65" shape-rendering="crispEdges"/><rect fill="#242f38" x="329.4" y="294.3" width="134.2" height="24.65" shape-rendering="crispEdges"/><rect fill="#242f38" x="463.6" y="294.3" width="719.8" height="24.65" shape-rendering="crispEdges"/><rect fill="#0178d4" x="1183.4" y="294.3" width="24.4" height="24.65" shape-rendering="crispEdges"/><rect fill="#0178d4" x="1207.8" y="294.3" width="122" height="24.65" shape-rendering="crispEdges"/><rect fill="#0178d4" x="1329.8" y="294.3" width="24.4" height="24.65" shape-rendering="crispEdges"/><rect fill="#242f38" x="1354.2" y="294.3" width="12.2" height="24.65" shape-rendering="crispEdges"/><rect fill="#272727" x="0" y="318.7" width="305" height="24.65" shape-rendering="crispEdges"/><rect fill="#121212" x="305" y="318.7" width="12.2" height="24.65" shape-rendering="crispEdges"/><rect fill="#121212" x="317.2" y="318.7" width="12.2" height="24.65" shape-rendering="crispEdges"/><rect fill="#121212" x="329.4" y="318.7" width="390.4" height="24.65" shape-rendering="crispEdges"/><rect fill="#121212" x="719.8" y="318.7" width="634.4" height="24.65" shape-rendering="crispEdges"/><rect fill="#121212" x="1354.2" y="318.7" width="12.2" height="24.65" shape-rendering="crispEdges"/><rect fill="#272727" x="0" y="343.1" width="305" height="24.65" shape-rendering="crispEdges"/><rect fill="#121212" x="305" y="343.1" width="12.2" height="24.65" shape-rendering="crispEdges"/><rect fill="#121212" x="317.2" y="343.1" width="12.2" height="24.65" shape-rendering="crispEdges"/><rect fill="#121212" x="329.4" y="343.1" width="244" height="24.65" shape-rendering="crispEdges"/><rect fill="#121212" x="573.4" y="343.1" width="780.8" height="24.65" shape-rendering="crispEdges"/><rect fill="#121212" x="1354.2" y="343.1" width="12.2" height="24.65" shape-rendering="crispEdges"/><rect fill="#272727" x="0" y="367.5" width="305" height="24.65" shape-rendering="crispEdges"/><rect fill="#121212" x="305" y="367.5" width="12.2" height="24.65" shape-rendering="crispEdges"/><rect fill="#121212" x="317.2" y="367.5" width="12.2" height="24.65" shape-rendering="crispEdges"/><rect fill="#121212" x="329.4" y="367.5" width="268.4" height="24.65" shape-rendering="crispEdges"/><rect fill="#121212" x="597.8" y="367.5" width="756.4" height="24.65" shape-rendering="crispEdges"/><rect fill="#121212" x="1354.2" y="367.5" width="12.2" height="24.65" shape-rendering="crispEdges"/><rect fill="#272727" x="0" y="391.9" width="305" height="24.65" shape-rendering="crispEdges"/><rect fill="#121212" x="305" y="391.9" width="12.2" height="24.65" shape-rendering="crispEdges"/><rect fill="#121212" x="317.2" y="391.9" width="12.2" height="24.65" shape-rendering="crispEdges"/><rect fill="#121212" x="329.4" y="391.9" width="158.6" height="24.65" shape-rendering="crispEdges"/><rect fill="#121212" x="488" y="391.9" width="866.2" height="24.65" shape-rendering="crispEdges"/><rect fill="#121212" x="1354.2" y="391.9" width="12.2" height="24.65" shape-rendering="crispEdges"/><rect fill="#272727" x="0" y="416.3" width="305" height="24.65" shape-rendering="crispEdges"/><rect fill="#121212" x="305" y="416.3" width="12.2" height="24.65" shape-rendering="crispEdges"/><rect fill="#121212" x="317.2" y="416.3" width="12.2" height="24.65" shape-rendering="crispEdges"/><rect fill="#121212" x="329.4" y="416.3" width="170.8" height="24.65" shape-rendering="crispEdges"/><rect fill="#121212" x="500.2" y="416.3" width="854" height="24.65" shape-rendering="crispEdges"/><rect fill="#121212" x="1354.2" y="416.3" width="12.2" height="24.65" shape-rendering="crispEdges"/><rect fill="#272727" x="0" y="440.7" width="305" height="24.65" shape-rendering="crispEdges"/><rect fill="#121212" x="305" y="440.7" width="12.2" height="24.65" shape-rendering="crispEdges"/><rect fill="#121212" x="317.2" y="440.7" width="12.2" height="24.65" shape-rendering="crispEdges"/><rect fill="#121212" x="329.4" y="440.7" width="158.6" height="24.65" shape-rendering="crispEdges"/><rect fill="#121212" x="488" y="440.7" width="866.2" height="24.65" shape-rendering="crispEdges"/><rect fill="#121212" x="1354.2" y="440.7" width="12.2" height="24.65" shape-rendering="crispEdges"/><rect fill="#272727" x="0" y="465.1" width="305" height="24.65" shape-rendering="crispEdges"/><rect fill="#121212" x="305" y="465.1" width="12.2" height="24.65" shape-rendering="crispEdges"/><rect fill="#121212" x="317.2" y="465.1" width="12.2" height="24.65" shape-rendering="crispEdges"/><rect fill="#121212" x="329.4" y="465.1" width="48.8" height="24.65" shape-rendering="crispEdges"/><rect fill="#121212" x="378.2" y="465.1" width="976" height="24.65" shape-rendering="crispEdges"/><rect fill="#121212" x="1354.2" y="465.1" width="12.2" height="24.65" shape-rendering="crispEdges"/><rect fill="#272727" x="0" y="489.5" width="305" height="24.65" shape-rendering="crispEdges"/><rect fill="#121212" x="305" y="489.5" width="12.2" height="24.65" shape-rendering="crispEdges"/><rect fill="#121212" x="317.2" y="489.5" width="12.2" height="24.65" shape-rendering="crispEdges"/><rect fill="#121212" x="329.4" y="489.5" width="0" height="24.65" shape-rendering="crispEdges"/><rect fill="#121212" x="329.4" y="489.5" width="1024.8" height="24.65" shape-rendering="crispEdges"/><rect fill="#121212" x="1354.2" y="489.5" width="12.2" height="24.65" shape-rendering="crispEdges"/><rect fill="#272727" x="0" y="513.9" width="305" height="24.65" shape-rendering="crispEdges"/><rect fill="#121212" x="305" y="513.9" width="12.2" height="24.65" shape-rendering="crispEdges"/><rect fill="#121212" x="317.2" y="513.9" width="1049.2" height="24.65" shape-rendering="crispEdges"/><rect fill="#272727" x="0" y="538.3" width="305" height="24.65" shape-rendering="crispEdges"/><rect fill="#121212" x="305" y="538.3" width="12.2" height="24.65" shape-rendering="crispEdges"/><rect fill="#121212" x="317.2" y="538.3" width="1049.2" height="24.65" shape-rendering="crispEdges"/><rect fill="#272727" x="0" y="562.7" width="305" height="24.65" shape-rendering="crispEdges"/><rect fill="#121212" x="305" y="562.7" width="12.2" height="24.65" shape-rendering="crispEdges"/><rect fill="#121212" x="317.2" y="562.7" width="1049.2" height="24.65" shape-rendering="crispEdges"/><rect fill="#272727" x="0" y="587.1" width="305" height="24.65" shape-rendering="crispEdges"/><rect fill="#121212" x="305" y="587.1" width="12.2" height="24.65" shape-rendering="crispEdges"/><rect fill="#121212" x="317.2" y="587.1" width="1049.2" height="24.65" shape-rendering="crispEdges"/><rect fill="#272727" x="0" y="611.5" width="305" height="24.65" shape-rendering="crispEdges"/><rect fill="#121212" x="305" y="611.5" width="12.2" height="24.65" shape-rendering="crispEdges"/><rect fill="#121212" x="317.2" y="611.5" width="1049.2" height="24.65" shape-rendering="crispEdges"/><rect fill="#272727" x="0" y="635.9" width="305" height="24.65" shape-rendering="crispEdges"/><rect fill="#121212" x="305" y="635.9" width="12.2" height="24.65" shape-rendering="crispEdges"/><rect fill="#121212" x="317.2" y="635.9" width="1049.2" height="24.65" shape-rendering="crispEdges"/><rect fill="#272727" x="0" y="660.3" width="305" height="24.65" shape-rendering="crispEdges"/><rect fill="#121212" x="305" y="660.3" width="12.2" height="24.65" shape-rendering="crispEdges"/><rect fill="#121212" x="317.2" y="660.3" width="1049.2" height="24.65" shape-rendering="crispEdges"/><rect fill="#272727" x="0" y="684.7" width="305" height="24.65" shape-rendering="crispEdges"/><rect fill="#121212" x="305" y="684.7" width="12.2" height="24.65" shape-rendering="crispEdges"/><rect fill="#121212" x="317.2" y="684.7" width="1049.2" height="24.65" shape-rendering="crispEdges"/><rect fill="#242f38" x="0" y="709.1" width="48.8" height="24.65" shape-rendering="crispEdges"/><rect fill="#242f38" x="48.8" y="709.1" width="61" height="24.65" shape-rendering="crispEdges"/><rect fill="#242f38" x="109.8" y="709.1" width="48.8" height="24.65" shape-rendering="crispEdges"/><rect fill="#242f38" x="158.6" y="709.1" width="73.2" height="24.65" shape-rendering="crispEdges"/><rect fill="#242f38" x="231.8" y="709.1" width="48.8" height="24.65" shape-rendering="crispEdges"/><rect fill="#242f38" x="280.6" y="709.1" width="122" height="24.65" shape-rendering="crispEdges"/><rect fill="#242f38" x="402.6" y="709.1" width="817.4" height="24.65" shape-rendering="crispEdges"/><rect fill="#242f38" x="1220" y="709.1" width="12.2" height="24.65" shape-rendering="crispEdges"/><rect fill="#242f38" x="1232.2" y="709.1" width="24.4" height="24.65" shape-rendering="crispEdges"/><rect fill="#242f38" x="1256.6" y="709.1" width="97.6" height="24.65" shape-rendering="crispEdges"/><rect fill="#242f38" x="1354.2" y="709.1" width="12.2" height="24.65" shape-rendering="crispEdges"/>
    <g class="terminal-2326127885-matrix">
    <text class="terminal-2326127885-r2" x="12.2" y="20" textLength="12.2" clip-path="url(#terminal-2326127885-line-0)">⭘</text><text class="terminal-2326127885-r2" x="634.4" y="20" textLength="73.2" clip-path="url(#terminal-2326127885-line-0)">tuuuui</text><text class="terminal-2326127885-r1" x="1366.4" y="20" textLength="12.2" clip-path="url(#terminal-2326127885-line-0)">
</text><text class="terminal-2326127885-r3" x="12.2" y="44.4" textLength="12.2" clip-path="url(#terminal-2326127885-line-1)">▐</text><text class="terminal-2326127885-r4" x="24.4" y="44.4" textLength="12.2" clip-path="url(#terminal-2326127885-line-1)">X</text><text class="terminal-2326127885-r3" x="36.6" y="44.4" textLength="12.2" clip-path="url(#terminal-2326127885-line-1)">▌</text><text class="terminal-2326127885-r2" x="48.8" y="44.4" textLength="170.8" clip-path="url(#terminal-2326127885-line-1)">&#160;Changed&#160;only&#160;</text><text class="terminal-2326127885-r5" x="305" y="44.4" textLength="12.2" clip-path="url(#terminal-2326127885-line-1)">│</text><text class="terminal-2326127885-r6" x="317.2" y="44.4" textLength="12.2" clip-path="url(#terminal-2326127885-line-1)">▊</text><text class="terminal-2326127885-r7" x="329.4" y="44.4" textLength="1024.8" clip-path="url(#terminal-2326127885-line-1)">▔▔▔▔▔▔▔▔▔▔▔▔▔▔▔▔▔▔▔▔▔▔▔▔▔▔▔▔▔▔▔▔▔▔▔▔▔▔▔▔▔▔▔▔▔▔▔▔▔▔▔▔▔▔▔▔▔▔▔▔▔▔▔▔▔▔▔▔▔▔▔▔▔▔▔▔▔▔▔▔▔▔▔▔</text><text class="terminal-2326127885-r7" x="1354.2" y="44.4" textLength="12.2" clip-path="url(#terminal-2326127885-line-1)">▎</text><text class="terminal-2326127885-r1" x="1366.4" y="44.4" textLength="12.2" clip-path="url(#terminal-2326127885-line-1)">
</text><text class="terminal-2326127885-r2" x="0" y="68.8" textLength="24.4" clip-path="url(#terminal-2326127885-line-2)">📂&#160;</text><text class="terminal-2326127885-r8" x="36.6" y="68.8" textLength="134.2" clip-path="url(#terminal-2326127885-line-2)">tmp0iuqf352</text><text class="terminal-2326127885-r5" x="305" y="68.8" textLength="12.2" clip-path="url(#terminal-2326127885-line-2)">│</text><text class="terminal-2326127885-r6" x="317.2" y="68.8" textLength="12.2" clip-path="url(#terminal-2326127885-line-2)">▊</text><text class="terminal-2326127885-r9" x="341.6" y="68.8" textLength="219.6" clip-path="url(#terminal-2326127885-line-2)">●&#160;Unstaged&#160;changes</text><text class="terminal-2326127885-r7" x="1354.2" y="68.8" textLength="12.2" clip-path="url(#terminal-2326127885-line-2)">▎</text><text class="terminal-2326127885-r1" x="1366.4" y="68.8" textLength="12.2" clip-path="url(#terminal-2326127885-line-2)">
</text><text class="terminal-2326127885-r10" x="0" y="93.2" textLength="48.8" clip-path="url(#terminal-2326127885-line-3)">├──&#160;</text><text class="terminal-2326127885-r2" x="48.8" y="93.2" textLength="24.4" clip-path="url(#terminal-2326127885-line-3)">📁&#160;</text><text class="terminal-2326127885-r11" x="85.4" y="93.2" textLength="48.8" clip-path="url(#terminal-2326127885-line-3)">.git</text><text class="terminal-2326127885-r5" x="305" y="93.2" textLength="12.2" clip-path="url(#terminal-2326127885-line-3)">│</text><text class="terminal-2326127885-r6" x="317.2" y="93.2" textLength="12.2" clip-path="url(#terminal-2326127885-line-3)">▊</text><text class="terminal-2326127885-r12" x="341.6" y="93.2" textLength="195.2" clip-path="url(#terminal-2326127885-line-3)">●&#160;Staged&#160;changes</text><text class="terminal-2326127885-r7" x="1354.2" y="93.2" textLength="12.2" clip-path="url(#terminal-2326127885-line-3)">▎</text><text class="terminal-2326127885-r1" x="1366.4" y="93.2" textLength="12.2" clip-path="url(#terminal-2326127885-line-3)">
</text><text class="terminal-2326127885-r10" x="0" y="117.6" textLength="48.8" clip-path="url(#terminal-2326127885-line-4)">├──&#160;</text><text class="terminal-2326127885-r2" x="48.8" y="117.6" textLength="24.4" clip-path="url(#terminal-2326127885-line-4)">📄&#160;</text><text class="terminal-2326127885-r2" x="85.4" y="117.6" textLength="61" clip-path="url(#terminal-2326127885-line-4)">alpha</text><text class="terminal-2326127885-r13" x="146.4" y="117.6" textLength="36.6" clip-path="url(#terminal-2326127885-line-4)">.py</text><text class="terminal-2326127885-r5" x="305" y="117.6" textLength="12.2" clip-path="url(#terminal-2326127885-line-4)">│</text><text class="terminal-2326127885-r6" x="317.2" y="117.6" textLength="12.2" clip-path="url(#terminal-2326127885-line-4)">▊</text><text class="terminal-2326127885-r2" x="341.6" y="117.6" textLength="695.4" clip-path="url(#terminal-2326127885-line-4)">d38370d&#160;&#160;0&#160;seconds&#160;ago&#160;&#160;&#160;t&#160;&#160;&#160;&#160;&#160;&#160;&#160;&#160;&#160;&#160;&#160;&#160;&#160;&#160;&#160;&#160;&#160;initial&#160;commit</text><text class="terminal-2326127885-r7" x="1354.2" y="117.6" textLength="12.2" clip-path="url(#terminal-2326127885-line-4)">▎</text><text class="terminal-2326127885-r1" x="1366.4" y="117.6" textLength="12.2" clip-path="url(#terminal-2326127885-line-4)">
</text><text class="terminal-2326127885-r10" x="0" y="142" textLength="48.8" clip-path="url(#terminal-2326127885-line-5)">├──&#160;</text><text class="terminal-2326127885-r2" x="48.8" y="142" textLength="24.4" clip-path="url(#terminal-2326127885-line-5)">📄&#160;</text><text class="terminal-2326127885-r2" x="85.4" y="142" textLength="48.8" clip-path="url(#terminal-2326127885-line-5)">beta</text><text class="terminal-2326127885-r13" x="134.2" y="142" textLength="36.6" clip-path="url(#terminal-2326127885-line-5)">.py</text><text class="terminal-2326127885-r5" x="305" y="142" textLength="12.2" clip-path="url(#terminal-2326127885-line-5)">│</text><text class="terminal-2326127885-r6" x="317.2" y="142" textLength="12.2" clip-path="url(#terminal-2326127885-line-5)">▊</text><text class="terminal-2326127885-r7" x="1354.2" y="142" textLength="12.2" clip-path="url(#terminal-2326127885-line-5)">▎</text><text class="terminal-2326127885-r1" x="1366.4" y="142" textLength="12.2" clip-path="url(#terminal-2326127885-line-5)">
</text><text class="terminal-2326127885-r10" x="0" y="166.4" textLength="48.8" clip-path="url(#terminal-2326127885-line-6)">└──&#160;</text><text class="terminal-2326127885-r14" x="48.8" y="166.4" textLength="24.4" clip-path="url(#terminal-2326127885-line-6)">📄&#160;</text><text class="terminal-2326127885-r14" x="85.4" y="166.4" textLength="61" clip-path="url(#terminal-2326127885-line-6)">gamma</text><text class="terminal-2326127885-r15" x="146.4" y="166.4" textLength="36.6" clip-path="url(#terminal-2326127885-line-6)">.py</text><text class="terminal-2326127885-r16" x="183" y="166.4" textLength="24.4" clip-path="url(#terminal-2326127885-line-6)">&#160;*</text><text class="terminal-2326127885-r5" x="305" y="166.4" textLength="12.2" clip-path="url(#terminal-2326127885-line-6)">│</text><text class="terminal-2326127885-r6" x="317.2" y="166.4" textLength="12.2" clip-path="url(#terminal-2326127885-line-6)">▊</text><text class="terminal-2326127885-r7" x="1354.2" y="166.4" textLength="12.2" clip-path="url(#terminal-2326127885-line-6)">▎</text><text class="terminal-2326127885-r1" x="1366.4" y="166.4" textLength="12.2" clip-path="url(#terminal-2326127885-line-6)">
</text><text class="terminal-2326127885-r5" x="305" y="190.8" textLength="12.2" clip-path="url(#terminal-2326127885-line-7)">│</text><text class="terminal-2326127885-r6" x="317.2" y="190.8" textLength="12.2" clip-path="url(#terminal-2326127885-line-7)">▊</text><text class="terminal-2326127885-r7" x="1354.2" y="190.8" textLength="12.2" clip-path="url(#terminal-2326127885-line-7)">▎</text><text class="terminal-2326127885-r1" x="1366.4" y="190.8" textLength="12.2" clip-path="url(#terminal-2326127885-line-7)">
</text><text class="terminal-2326127885-r5" x="305" y="215.2" textLength="12.2" clip-path="url(#terminal-2326127885-line-8)">│</text><text class="terminal-2326127885-r6" x="317.2" y="215.2" textLength="12.2" clip-path="url(#terminal-2326127885-line-8)">▊</text><text class="terminal-2326127885-r7" x="1354.2" y="215.2" textLength="12.2" clip-path="url(#terminal-2326127885-line-8)">▎</text><text class="terminal-2326127885-r1" x="1366.4" y="215.2" textLength="12.2" clip-path="url(#terminal-2326127885-line-8)">
</text><text class="terminal-2326127885-r5" x="305" y="239.6" textLength="12.2" clip-path="url(#terminal-2326127885-line-9)">│</text><text class="terminal-2326127885-r6" x="317.2" y="239.6" textLength="12.2" clip-path="url(#terminal-2326127885-line-9)">▊</text><text class="terminal-2326127885-r7" x="1354.2" y="239.6" textLength="12.2" clip-path="url(#terminal-2326127885-line-9)">▎</text><text class="terminal-2326127885-r1" x="1366.4" y="239.6" textLength="12.2" clip-path="url(#terminal-2326127885-line-9)">
</text><text class="terminal-2326127885-r5" x="305" y="264" textLength="12.2" clip-path="url(#terminal-2326127885-line-10)">│</text><text class="terminal-2326127885-r6" x="317.2" y="264" textLength="12.2" clip-path="url(#terminal-2326127885-line-10)">▊</text><text class="terminal-2326127885-r7" x="1354.2" y="264" textLength="12.2" clip-path="url(#terminal-2326127885-line-10)">▎</text><text class="terminal-2326127885-r1" x="1366.4" y="264" textLength="12.2" clip-path="url(#terminal-2326127885-line-10)">
</text><text class="terminal-2326127885-r5" x="305" y="288.4" textLength="12.2" clip-path="url(#terminal-2326127885-line-11)">│</text><text class="terminal-2326127885-r5" x="317.2" y="288.4" textLength="12.2" clip-path="url(#terminal-2326127885-line-11)">└</text><text class="terminal-2326127885-r5" x="329.4" y="288.4" textLength="1024.8" clip-path="url(#terminal-2326127885-line-11)">────────────────────────────────────────────────────────────────────────────────────</text><text class="terminal-2326127885-r5" x="1354.2" y="288.4" textLength="12.2" clip-path="url(#terminal-2326127885-line-11)">┘</text><text class="terminal-2326127885-r1" x="1366.4" y="288.4" textLength="12.2" clip-path="url(#terminal-2326127885-line-11)">
</text><text class="terminal-2326127885-r5" x="305" y="312.8" textLength="12.2" clip-path="url(#terminal-2326127885-line-12)">│</text><text class="terminal-2326127885-r2" x="329.4" y="312.8" textLength="134.2" clip-path="url(#terminal-2326127885-line-12)">Staged&#160;diff</text><text class="terminal-2326127885-r8" x="1207.8" y="312.8" textLength="122" clip-path="url(#terminal-2326127885-line-12)">&#160;⟳&#160;Reload&#160;</text><text class="terminal-2326127885-r1" x="1366.4" y="312.8" textLength="12.2" clip-path="url(#terminal-2326127885-line-12)">
</text><text class="terminal-2326127885-r5" x="305" y="337.2" textLength="12.2" clip-path="url(#terminal-2326127885-line-13)">│</text><text class="terminal-2326127885-r16" x="329.4" y="337.2" textLength="390.4" clip-path="url(#terminal-2326127885-line-13)">diff&#160;--git&#160;a/gamma.py&#160;b/gamma.py</text><text class="terminal-2326127885-r1" x="1366.4" y="337.2" textLength="12.2" clip-path="url(#terminal-2326127885-line-13)">
</text><text class="terminal-2326127885-r5" x="305" y="361.6" textLength="12.2" clip-path="url(#terminal-2326127885-line-14)">│</text><text class="terminal-2326127885-r2" x="329.4" y="361.6" textLength="244" clip-path="url(#terminal-2326127885-line-14)">new&#160;file&#160;mode&#160;100644</text><text class="terminal-2326127885-r1" x="1366.4" y="361.6" textLength="12.2" clip-path="url(#terminal-2326127885-line-14)">
</text><text class="terminal-2326127885-r5" x="305" y="386" textLength="12.2" clip-path="url(#terminal-2326127885-line-15)">│</text><text class="terminal-2326127885-r16" x="329.4" y="386" textLength="268.4" clip-path="url(#terminal-2326127885-line-15)">index&#160;0000000..7fc3e85</text><text class="terminal-2326127885-r1" x="1366.4" y="386" textLength="12.2" clip-path="url(#terminal-2326127885-line-15)">
</text><text class="terminal-2326127885-r5" x="305" y="410.4" textLength="12.2" clip-path="url(#terminal-2326127885-line-16)">│</text><text class="terminal-2326127885-r16" x="329.4" y="410.4" textLength="158.6" clip-path="url(#terminal-2326127885-line-16)">---&#160;/dev/null</text><text class="terminal-2326127885-r1" x="1366.4" y="410.4" textLength="12.2" clip-path="url(#terminal-2326127885-line-16)">
</text><text class="terminal-2326127885-r5" x="305" y="434.8" textLength="12.2" clip-path="url(#terminal-2326127885-line-17)">│</text><text class="terminal-2326127885-r16" x="329.4" y="434.8" textLength="170.8" clip-path="url(#terminal-2326127885-line-17)">+++&#160;b/gamma.py</text><text class="terminal-2326127885-r1" x="1366.4" y="434.8" textLength="12.2" clip-path="url(#terminal-2326127885-line-17)">
</text><text class="terminal-2326127885-r5" x="305" y="459.2" textLength="12.2" clip-path="url(#terminal-2326127885-line-18)">│</text><text class="terminal-2326127885-r17" x="329.4" y="459.2" textLength="158.6" clip-path="url(#terminal-2326127885-line-18)">@@&#160;-0,0&#160;+1&#160;@@</text><text class="terminal-2326127885-r1" x="1366.4" y="459.2" textLength="12.2" clip-path="url(#terminal-2326127885-line-18)">
</text><text class="terminal-2326127885-r5" x="305" y="483.6" textLength="12.2" clip-path="url(#terminal-2326127885-line-19)">│</text><text class="terminal-2326127885-r18" x="329.4" y="483.6" textLength="48.8" clip-path="url(#terminal-2326127885-line-19)">+z=1</text><text class="terminal-2326127885-r1" x="1366.4" y="483.6" textLength="12.2" clip-path="url(#terminal-2326127885-line-19)">
</text><text class="terminal-2326127885-r5" x="305" y="508" textLength="12.2" clip-path="url(#terminal-2326127885-line-20)">│</text><text class="terminal-2326127885-r1" x="1366.4" y="508" textLength="12.2" clip-path="url(#terminal-2326127885-line-20)">
</text><text class="terminal-2326127885-r5" x="305" y="532.4" textLength="12.2" clip-path="url(#terminal-2326127885-line-21)">│</text><text class="terminal-2326127885-r1" x="1366.4" y="532.4" textLength="12.2" clip-path="url(#terminal-2326127885-line-21)">
</text><text class="terminal-2326127885-r5" x="305" y="556.8" textLength="12.2" clip-path="url(#terminal-2326127885-line-22)">│</text><text class="terminal-2326127885-r1" x="1366.4" y="556.8" textLength="12.2" clip-path="url(#terminal-2326127885-line-22)">
</text><text class="terminal-2326127885-r5" x="305" y="581.2" textLength="12.2" clip-path="url(#terminal-2326127885-line-23)">│</text><text class="terminal-2326127885-r1" x="1366.4" y="581.2" textLength="12.2" clip-path="url(#terminal-2326127885-line-23)">
</text><text class="terminal-2326127885-r5" x="305" y="605.6" textLength="12.2" clip-path="url(#terminal-2326127885-line-24)">│</text><text class="terminal-2326127885-r1" x="1366.4" y="605.6" textLength="12.2" clip-path="url(#terminal-2326127885-line-24)">
</text><text class="terminal-2326127885-r5" x="305" y="630" textLength="12.2" clip-path="url(#terminal-2326127885-line-25)">│</text><text class="terminal-2326127885-r1" x="1366.4" y="630" textLength="12.2" clip-path="url(#terminal-2326127885-line-25)">
</text><text class="terminal-2326127885-r5" x="305" y="654.4" textLength="12.2" clip-path="url(#terminal-2326127885-line-26)">│</text><text class="terminal-2326127885-r1" x="1366.4" y="654.4" textLength="12.2" clip-path="url(#terminal-2326127885-line-26)">
</text><text class="terminal-2326127885-r5" x="305" y="678.8" textLength="12.2" clip-path="url(#terminal-2326127885-line-27)">│</text><text class="terminal-2326127885-r1" x="1366.4" y="678.8" textLength="12.2" clip-path="url(#terminal-2326127885-line-27)">
</text><text class="terminal-2326127885-r5" x="305" y="703.2" textLength="12.2" clip-path="url(#terminal-2326127885-line-28)">│</text><text class="terminal-2326127885-r1" x="1366.4" y="703.2" textLength="12.2" clip-path="url(#terminal-2326127885-line-28)">
</text><text class="terminal-2326127885-r19" x="0" y="727.6" textLength="48.8" clip-path="url(#terminal-2326127885-line-29)">&#160;^q&#160;</text><text class="terminal-2326127885-r2" x="48.8" y="727.6" textLength="61" clip-path="url(#terminal-2326127885-line-29)">Quit&#160;</text><text class="terminal-2326127885-r19" x="109.8" y="727.6" textLength="48.8" clip-path="url(#terminal-2326127885-line-29)">&#160;^x&#160;</text><text class="terminal-2326127885-r2" x="158.6" y="727.6" textLength="73.2" clip-path="url(#terminal-2326127885-line-29)">C-x&#160;…&#160;</text><text class="terminal-2326127885-r19" x="231.8" y="727.6" textLength="48.8" clip-path="url(#terminal-2326127885-line-29)">&#160;f2&#160;</text><text class="terminal-2326127885-r2" x="280.6" y="727.6" textLength="122" clip-path="url(#terminal-2326127885-line-29)">MD&#160;render&#160;</text><text class="terminal-2326127885-r20" x="1220" y="727.6" textLength="12.2" clip-path="url(#terminal-2326127885-line-29)">▏</text><text class="terminal-2326127885-r19" x="1232.2" y="727.6" textLength="24.4" clip-path="url(#terminal-2326127885-line-29)">^\</text><text class="terminal-2326127885-r2" x="1256.6" y="727.6" textLength="97.6" clip-path="url(#terminal-2326127885-line-29)">&#160;palette</text>
    </g>
    </g>
</svg>
